<?xml version="1.0" encoding="UTF-8" standalone="no"?>
<!-- Created with Inkscape (http://www.inkscape.org/) -->

<svg
   xmlns:dc="http://purl.org/dc/elements/1.1/"
   xmlns:cc="http://creativecommons.org/ns#"
   xmlns:rdf="http://www.w3.org/1999/02/22-rdf-syntax-ns#"
   xmlns:svg="http://www.w3.org/2000/svg"
   xmlns="http://www.w3.org/2000/svg"
   xmlns:sodipodi="http://sodipodi.sourceforge.net/DTD/sodipodi-0.dtd"
   xmlns:inkscape="http://www.inkscape.org/namespaces/inkscape"
   width="320"
   height="320"
   id="svg4496"
   version="1.1"
   inkscape:version="0.47pre4 r22446"
   sodipodi:docname="braldahim-persos.svg">
  <defs
     id="defs4498">
    <inkscape:perspective
       sodipodi:type="inkscape:persp3d"
       inkscape:vp_x="0 : 526.18109 : 1"
       inkscape:vp_y="0 : 1000 : 0"
       inkscape:vp_z="744.09448 : 526.18109 : 1"
       inkscape:persp3d-origin="372.04724 : 350.78739 : 1"
       id="perspective4504" />
    <inkscape:perspective
       id="perspective4514"
       inkscape:persp3d-origin="0.5 : 0.33333333 : 1"
       inkscape:vp_z="1 : 0.5 : 1"
       inkscape:vp_y="0 : 1000 : 0"
       inkscape:vp_x="0 : 0.5 : 1"
       sodipodi:type="inkscape:persp3d" />
    <inkscape:perspective
       id="perspective4881"
       inkscape:persp3d-origin="0.5 : 0.33333333 : 1"
       inkscape:vp_z="1 : 0.5 : 1"
       inkscape:vp_y="0 : 1000 : 0"
       inkscape:vp_x="0 : 0.5 : 1"
       sodipodi:type="inkscape:persp3d" />
    <inkscape:perspective
       id="perspective5503"
       inkscape:persp3d-origin="0.5 : 0.33333333 : 1"
       inkscape:vp_z="1 : 0.5 : 1"
       inkscape:vp_y="0 : 1000 : 0"
       inkscape:vp_x="0 : 0.5 : 1"
       sodipodi:type="inkscape:persp3d" />
    <inkscape:perspective
       id="perspective5503-0"
       inkscape:persp3d-origin="0.5 : 0.33333333 : 1"
       inkscape:vp_z="1 : 0.5 : 1"
       inkscape:vp_y="0 : 1000 : 0"
       inkscape:vp_x="0 : 0.5 : 1"
       sodipodi:type="inkscape:persp3d" />
    <inkscape:perspective
       id="perspective5503-7"
       inkscape:persp3d-origin="0.5 : 0.33333333 : 1"
       inkscape:vp_z="1 : 0.5 : 1"
       inkscape:vp_y="0 : 1000 : 0"
       inkscape:vp_x="0 : 0.5 : 1"
       sodipodi:type="inkscape:persp3d" />
    <inkscape:perspective
       id="perspective5503-6"
       inkscape:persp3d-origin="0.5 : 0.33333333 : 1"
       inkscape:vp_z="1 : 0.5 : 1"
       inkscape:vp_y="0 : 1000 : 0"
       inkscape:vp_x="0 : 0.5 : 1"
       sodipodi:type="inkscape:persp3d" />
    <inkscape:perspective
       id="perspective5503-73"
       inkscape:persp3d-origin="0.5 : 0.33333333 : 1"
       inkscape:vp_z="1 : 0.5 : 1"
       inkscape:vp_y="0 : 1000 : 0"
       inkscape:vp_x="0 : 0.5 : 1"
       sodipodi:type="inkscape:persp3d" />
    <inkscape:perspective
       id="perspective5600"
       inkscape:persp3d-origin="0.5 : 0.33333333 : 1"
       inkscape:vp_z="1 : 0.5 : 1"
       inkscape:vp_y="0 : 1000 : 0"
       inkscape:vp_x="0 : 0.5 : 1"
       sodipodi:type="inkscape:persp3d" />
  </defs>
  <sodipodi:namedview
     id="base"
     pagecolor="#ffffff"
     bordercolor="#666666"
     borderopacity="1.0"
     inkscape:pageopacity="0.0"
     inkscape:pageshadow="2"
     inkscape:zoom="0.7"
     inkscape:cx="341.73973"
     inkscape:cy="56.244247"
     inkscape:document-units="px"
     inkscape:current-layer="layer2"
     showgrid="false"
     inkscape:window-width="1255"
     inkscape:window-height="751"
     inkscape:window-x="0"
     inkscape:window-y="1"
     inkscape:window-maximized="1" />
  <metadata
     id="metadata4501">
    <rdf:RDF>
      <cc:Work
         rdf:about="">
        <dc:format>image/svg+xml</dc:format>
        <dc:type
           rdf:resource="http://purl.org/dc/dcmitype/StillImage" />
        <dc:title></dc:title>
      </cc:Work>
    </rdf:RDF>
  </metadata>
  <g
     inkscape:label="Masculin"
     inkscape:groupmode="layer"
     id="layer1"
     transform="translate(0,-732.36218)">
    <g
       style="display:inline"
       id="g4372"
       transform="matrix(1.1112321,0,0,1.1112321,859.88121,219.66263)">
      <path
         style="fill:#826122;fill-opacity:1;stroke:#51330f;stroke-width:5.39941216;stroke-linecap:butt;stroke-linejoin:miter;stroke-miterlimit:4;stroke-opacity:1;stroke-dasharray:none"
         d="m -675.85773,664.62475 c -1.74314,5.99194 -6.7788,19.9732 1.9368,18.64168 8.71554,-1.33157 59.84702,2.49664 57.52279,-1.33157 -2.32411,-3.82821 -11.42702,-14.97992 -17.6248,-15.14633 -6.19771,-0.16645 -40.86639,0.16641 -41.83479,-2.16378 z"
         id="path4019" />
      <path
         style="fill:#826122;fill-opacity:1;stroke:#51330f;stroke-width:5.39941216;stroke-linecap:butt;stroke-linejoin:miter;stroke-miterlimit:4;stroke-opacity:1;stroke-dasharray:none"
         d="m -727.9575,669.78448 c -3.8736,1.16512 -24.21,2.49669 -21.4984,6.32484 2.7114,3.82821 11.6207,10.65242 19.9489,9.32084 8.3283,-1.33151 44.74002,-3.9946 44.74002,-3.9946 0,0 -0.58109,-15.31284 -3.67995,-15.47924 -3.09885,-0.16645 -37.76757,3.66176 -39.51057,3.82816 z"
         id="path4021" />
      <path
         style="fill:#000000;fill-opacity:1;stroke:#000000;stroke-width:5.39941216;stroke-linecap:butt;stroke-linejoin:miter;stroke-miterlimit:4;stroke-opacity:1;stroke-dasharray:none"
         d="m -729.507,658.63281 c -0.1937,7.82282 -3.7004,13.82806 6.5646,16.4912 10.26502,2.66309 92.01838,-3.17575 91.24364,-7.33681 -0.77475,-4.16112 -1.54949,-11.48463 -1.54949,-11.48463 l -96.25875,2.33024 z"
         id="path4033"
         sodipodi:nodetypes="csscc" />
      <path
         style="fill:#2b5b8d;fill-opacity:1;stroke:#24384d;stroke-width:5.39941216;stroke-linecap:butt;stroke-linejoin:miter;stroke-miterlimit:4;stroke-opacity:1;stroke-dasharray:none"
         d="m -720.4041,597.71449 c -17.0437,7.15706 -23.2415,12.81614 -29.6329,22.30344 -6.3914,9.48724 -10.265,26.79735 -4.0673,25.13293 6.1978,-1.66443 18.0122,-2.82955 18.0122,-2.82955 0,0 -5.6167,17.80947 2.1304,17.80947 7.7472,0 99.35774,6.32485 101.48819,-1.16511 2.13046,-7.48997 0.58103,-29.9598 0.58103,-29.9598 l 6.7788,14.97992 c 0,0 22.46685,6.9906 22.46685,0 0,-6.99065 2.71149,-21.80413 -12.5892,-32.29004 -15.30068,-10.48596 -18.78691,-13.4819 -22.85422,-14.31411 -4.06726,-0.83221 -79.40855,0.83221 -82.31385,0.33285 z"
         id="path4023" />
      <path
         sodipodi:nodetypes="cscscsccscsccccccscc"
         id="path4227"
         d="m -740.6246,564.72588 c 0,15.65737 -2.0203,25.7589 9.5965,26.26397 9.6404,0.41914 6.566,-7.07107 6.566,-7.07107 0,0 3.5355,11.11168 5.0507,15.15229 1.5153,4.04061 28.78939,9.59645 28.78939,9.59645 0,0 10.10152,14.14213 11.61675,16.16244 1.51523,2.0203 1.51523,2.52538 1.51523,2.52538 l 12.62691,-17.17259 c 0,0 14.14213,-3.53554 19.69797,-6.566 5.55584,-3.03045 9.09138,-18.18274 9.09138,-18.18274 0,0 4.80907,2.4575 11.11167,3.03046 5.55584,0.50507 4.54569,-22.72844 4.54569,-22.72844 l -4.04061,-6.56599 -17.67767,-8.08122 -9.34391,-4.04061 -4.29315,3.03046 -24.74874,-16.16244 c 0,0 -18.68782,4.54569 -24.24371,15.65736 -5.5558,11.11168 -7.07103,-0.75761 -7.07103,-0.75761 l -28.78937,15.9099 z"
         style="color:#000000;fill:#e9c597;fill-opacity:1;fill-rule:nonzero;stroke:#ad805c;stroke-width:5.39941216;stroke-linecap:butt;stroke-linejoin:miter;stroke-miterlimit:4;stroke-opacity:1;stroke-dasharray:none;stroke-dashoffset:0;marker:none;visibility:visible;display:inline;overflow:visible;enable-background:accumulate" />
      <path
         style="fill:#130f0a;fill-opacity:1;stroke:#473927;stroke-width:5.39941216;stroke-linecap:butt;stroke-linejoin:miter;stroke-miterlimit:4;stroke-opacity:1;stroke-dasharray:none"
         d="m -703.29873,589.69119 c 7.55355,6.4913 9.47794,8.88757 24.58497,7.72251 15.10696,-1.16512 18.30702,-2.66315 22.568,-7.82287 l -2.42567,1.83775 c 0,0 -14.64286,11.07142 -20.71429,11.42856 -6.07143,0.35715 -24.01301,-13.16595 -24.01301,-13.16595 z"
         id="path4027"
         sodipodi:nodetypes="csccsc" />
      <path
         sodipodi:nodetypes="ccccc"
         style="fill:#51330f;fill-opacity:1;stroke:none"
         d="m -736.6218,640.48095 c 14.9133,-0.82776 108.99029,-0.88007 108.99029,-0.88007 l 2.49874,11.80254 -111.54033,0.42816 0.051,-11.35063 z"
         id="path4029" />
      <path
         style="fill:#e7c819;fill-opacity:1;stroke:none"
         d="m -694.68029,641.9269 0.77468,7.96417 33.50657,-0.68476 -1.16206,-7.6488 -33.11919,0.36939 z"
         id="path4031"
         sodipodi:nodetypes="ccccc" />
      <path
         sodipodi:nodetypes="cscc"
         style="fill:#e9c597;fill-opacity:1;stroke:#684e20;stroke-width:5.39941216;stroke-linecap:butt;stroke-linejoin:miter;stroke-miterlimit:4;stroke-opacity:1;stroke-dasharray:none"
         d="m -753.3271,643.22013 c 2.5178,13.81481 11.3433,18.45099 16.7663,17.28588 5.423,-1.16512 1.7788,-19.68883 1.7788,-19.68883 0,0 -6.7966,-19.73991 -18.5451,2.40295 z"
         id="path4035" />
      <path
         sodipodi:nodetypes="cscs"
         style="fill:#e9c597;fill-opacity:1;stroke:#684e20;stroke-width:5.39941216;stroke-linecap:butt;stroke-linejoin:miter;stroke-miterlimit:4;stroke-opacity:1;stroke-dasharray:none"
         d="m -627.25654,640.27551 c -2.79712,9.57743 -0.53845,25.96183 6.82144,21.80071 7.35976,-4.16106 13.5273,-15.59379 13.5273,-15.59379 0,0 -15.49256,-22.83462 -20.34874,-6.20692 z"
         id="path4037" />
      <path
         sodipodi:type="arc"
         style="color:#000000;fill:#ffffff;fill-opacity:1;fill-rule:nonzero;stroke:#ffffff;stroke-width:18.89644623;stroke-linecap:butt;stroke-linejoin:miter;stroke-miterlimit:4;stroke-opacity:1;stroke-dasharray:none;stroke-dashoffset:0;marker:none;visibility:visible;display:inline;overflow:visible;enable-background:accumulate"
         id="path4039"
         sodipodi:cx="1235"
         sodipodi:cy="1211.6479"
         sodipodi:rx="29.285715"
         sodipodi:ry="30.714285"
         d="m 1264.2857,1211.6479 c 0,16.9631 -13.1116,30.7143 -29.2857,30.7143 -16.1741,0 -29.2857,-13.7512 -29.2857,-30.7143 0,-16.963 13.1116,-30.7142 29.2857,-30.7142 16.1741,0 29.2857,13.7512 29.2857,30.7142 z"
         transform="matrix(0.29627237,0,0,0.27557617,-1067.6558,235.39873)" />
      <path
         sodipodi:type="arc"
         style="color:#000000;fill:#28b7e6;fill-opacity:1;fill-rule:nonzero;stroke:#51a9dc;stroke-width:15.10282516;stroke-linecap:butt;stroke-linejoin:miter;stroke-miterlimit:4;stroke-opacity:1;stroke-dasharray:none;stroke-dashoffset:0;marker:none;visibility:visible;display:inline;overflow:visible;enable-background:accumulate"
         id="path4041"
         sodipodi:cx="1243.5714"
         sodipodi:cy="1214.505"
         sodipodi:rx="13.571428"
         sodipodi:ry="22.142857"
         d="m 1257.1428,1214.505 c 0,12.2292 -6.0761,22.1429 -13.5714,22.1429 -7.4953,0 -13.5714,-9.9137 -13.5714,-22.1429 0,-12.2292 6.0761,-22.1429 13.5714,-22.1429 7.4953,0 13.5714,9.9137 13.5714,22.1429 z"
         transform="matrix(0.3958713,0,0,0.32286621,-1189.9683,179.81434)" />
      <path
         d="m 1264.2857,1211.6479 c 0,16.9631 -13.1116,30.7143 -29.2857,30.7143 -16.1741,0 -29.2857,-13.7512 -29.2857,-30.7143 0,-16.963 13.1116,-30.7142 29.2857,-30.7142 16.1741,0 29.2857,13.7512 29.2857,30.7142 z"
         sodipodi:ry="30.714285"
         sodipodi:rx="29.285715"
         sodipodi:cy="1211.6479"
         sodipodi:cx="1235"
         id="path4043"
         style="color:#000000;fill:#ffffff;fill-opacity:1;fill-rule:nonzero;stroke:#ffffff;stroke-width:17.57787895;stroke-linecap:butt;stroke-linejoin:miter;stroke-miterlimit:4;stroke-opacity:1;stroke-dasharray:none;stroke-dashoffset:0;marker:none;visibility:visible;display:inline;overflow:visible;enable-background:accumulate"
         sodipodi:type="arc"
         transform="matrix(0.29226716,0,0,0.32283464,-1019.2463,177.31676)" />
      <path
         d="m 1257.1428,1214.505 c 0,12.2292 -6.0761,22.1429 -13.5714,22.1429 -7.4953,0 -13.5714,-9.9137 -13.5714,-22.1429 0,-12.2292 6.0761,-22.1429 13.5714,-22.1429 7.4953,0 13.5714,9.9137 13.5714,22.1429 z"
         sodipodi:ry="22.142857"
         sodipodi:rx="13.571428"
         sodipodi:cy="1214.505"
         sodipodi:cx="1243.5714"
         id="path4045"
         style="color:#000000;fill:#28b7e6;fill-opacity:1;fill-rule:nonzero;stroke:#28b7e6;stroke-width:14.69038105;stroke-linecap:butt;stroke-linejoin:miter;stroke-miterlimit:4;stroke-opacity:1;stroke-dasharray:none;stroke-dashoffset:0;marker:none;visibility:visible;display:inline;overflow:visible;enable-background:accumulate"
         sodipodi:type="arc"
         transform="matrix(0.37613446,0,0,0.35915653,-1130.3983,134.93599)" />
      <path
         style="fill:#b38c34;fill-opacity:1;stroke:#705b2e;stroke-width:5.39941216;stroke-linecap:butt;stroke-linejoin:miter;stroke-miterlimit:4;stroke-opacity:1;stroke-dasharray:none"
         d="m -748.2788,573.09235 c 12.9766,0.66582 26.00051,-18.53207 32.8747,-17.82762 37.61213,3.85442 18.5831,-8.71124 35.73505,-8.94886 21.1869,-0.29351 2.33579,9.01499 35.17503,9.01831 14.78183,0.001 22.92948,16.4327 34.47225,6.37107 10.31629,-8.99251 -10.36082,-34.5762 -21.59418,-44.39635 -11.23349,-9.82014 -37.27806,-24.87662 -49.67991,-24.57421 -20.4767,0.49931 -50.72544,16.91978 -56.14844,28.90365 -5.4231,11.98393 -22.5805,31.38885 -20.6438,34.8842 1.9368,3.4953 12.5209,16.73625 9.8093,16.56979 l 0,2e-5 z"
         id="path4047"
         sodipodi:nodetypes="csssssssscc" />
      <path
         sodipodi:type="arc"
         style="color:#000000;fill:#000000;fill-opacity:1;fill-rule:nonzero;stroke:#000000;stroke-width:19.87838745;stroke-linecap:butt;stroke-linejoin:miter;stroke-miterlimit:4;stroke-opacity:1;stroke-dasharray:none;stroke-dashoffset:0;marker:none;visibility:visible;display:inline;overflow:visible;enable-background:accumulate"
         id="path4049"
         sodipodi:cx="1305.7142"
         sodipodi:cy="1220.9336"
         sodipodi:rx="12.857142"
         sodipodi:ry="10"
         d="m 1318.5714,1220.9336 c 0,5.5228 -5.7564,10 -12.8572,10 -7.1008,0 -12.8571,-4.4772 -12.8571,-10 0,-5.5229 5.7563,-10 12.8571,-10 7.1008,0 12.8572,4.4771 12.8572,10 z"
         transform="matrix(0.25865494,0,0,0.28523974,-1001.1367,225.21902)" />
      <path
         d="m 1318.5714,1220.9336 c 0,5.5228 -5.7564,10 -12.8572,10 -7.1008,0 -12.8571,-4.4772 -12.8571,-10 0,-5.5229 5.7563,-10 12.8571,-10 7.1008,0 12.8572,4.4771 12.8572,10 z"
         sodipodi:ry="10"
         sodipodi:rx="12.857142"
         sodipodi:cy="1220.9336"
         sodipodi:cx="1305.7142"
         id="path4051"
         style="color:#000000;fill:#000000;fill-opacity:1;fill-rule:nonzero;stroke:#000000;stroke-width:21.52735519;stroke-linecap:butt;stroke-linejoin:miter;stroke-miterlimit:4;stroke-opacity:1;stroke-dasharray:none;stroke-dashoffset:0;marker:none;visibility:visible;display:inline;overflow:visible;enable-background:accumulate"
         sodipodi:type="arc"
         transform="matrix(0.26440791,0,0,0.23792339,-1041.5566,283.63076)" />
      <path
         sodipodi:type="arc"
         style="color:#000000;fill:#ca6343;fill-opacity:1;fill-rule:nonzero;stroke:none;stroke-width:17.39470291;marker:none;visibility:visible;display:inline;overflow:visible;enable-background:accumulate"
         id="path4053"
         sodipodi:cx="1277.843"
         sodipodi:cy="1240.2506"
         sodipodi:rx="20.667803"
         sodipodi:ry="15.165505"
         d="m 1298.5108,1240.2506 c 0,8.3757 -9.2533,15.1655 -20.6678,15.1655 -11.4145,0 -20.6678,-6.7898 -20.6678,-15.1655 0,-8.3757 9.2533,-15.1655 20.6678,-15.1655 11.4145,0 20.6678,6.7898 20.6678,15.1655 z"
         transform="matrix(0.63835948,0,0,0.33664769,-1496.4982,165.91906)" />
      <path
         style="fill:#231c10;fill-opacity:0.28985506;stroke:none"
         d="m -674.74702,500.27427 c -30.48531,49.56886 -30.42079,6.84768 -44.09116,18.53874 -8.73392,7.46936 -26.47782,28.36489 -26.47782,28.36489 0,0 -11.9723,6.37141 -12.2454,9.37497 l 4.2754,5.53251 c 0,0 -0.9879,9.65641 4.7461,9.65641 l 2.1915,0 0,7.3827 22.9421,20.47553 c 0,0 -11.7489,2.46588 -19.3943,10.9304 -7.366,8.15523 -13.4511,22.12601 -13.8869,26.06742 0.4231,0.23024 1.452,2.06864 3.7843,8.59908 5.4609,15.29072 4.0915,18.56297 5.4567,15.5594 1.3652,-3.00356 0.5493,2.19763 1.3684,-2.99026 0.8192,-5.18795 0.8279,-4.91613 0.8279,-4.91613 0,0 -7.6482,-11.73817 0.2703,-10.37298 l 7.9232,1.35152 0,14.4782 c 0,0 -1.1027,2.188 2.7199,3.00713 l 3.8181,0.81091 12.83951,-3.00713 c 0,-7.37233 -1.35834,-26.20939 -5.72711,-30.57815 -4.3688,-4.36876 -0.8259,-10.36573 -4.3756,-4.35865 l -3.5477,5.99734 -5.4568,10.66014 -9.2917,-0.55747 c 0,0 -0.8077,-8.73823 0.5576,-13.38005 1.3652,-4.64183 19.918,-20.74584 19.918,-20.74584 0,0 12.2873,14.46992 21.84395,15.28905 l 9.56196,0.82777 28.12851,-12.83944 c 0,0 -19.11561,0.81237 -30.03754,-4.37552 -10.92192,-5.18795 -38.49548,-23.75432 -37.40328,-28.66915 1.0922,-4.91489 12.05938,-20.78023 12.05938,-20.78023 l 15.24132,1.94344 30.14769,-9.21488 9.99243,6.20775 57.80864,13.85982 c 0,0 2.58056,-35.32194 -8.61452,-36.96025 -1.74915,-0.25604 -55.53457,-31.15525 -57.87306,-31.16899 z m -81.94048,136.32357 c -0.5676,-0.30879 -0.034,2.28267 -0.034,0.40546 0,-0.11969 0.017,-0.25598 0.034,-0.40546 z m 123.10661,-17.6035 0.27027,15.28905 4.91619,5.7271 4.10528,3.54768 -1.09812,15.2891 c 0,0 6.83059,-5.73428 6.28452,-11.74131 l -0.5575,-5.99739 -13.92064,-22.11423 z m -101.27951,50.17514 c -2.8518,-0.0119 -4.3925,3.05784 -4.3925,3.05784 0,0 0.01,0.55796 -10.3729,2.19622 -10.3758,1.63832 8.1936,8.73418 8.1936,8.73418 l 9.8323,2.71996 c 9.8297,2.7305 18.56649,-2.17935 18.56649,-2.17935 l -14.20789,-8.19357 c -3.1059,-4.88072 -5.668,-6.32701 -7.6191,-6.33528 z m 58.41939,4.69659 0.54063,9.83226 33.31497,-0.54061 -20.76268,-5.45674 -13.09292,-3.83491 z"
         id="path4055"
         sodipodi:nodetypes="cscccccccscssscccccccsccccsccccsscccccsccscccccccccccccccccccccc" />
      <path
         sodipodi:nodetypes="csc"
         id="path4251"
         d="m -714.72208,572.03825 c 4.28571,-7.85714 0.67148,-8.6631 8.92857,-11.07142 8.57143,-2.5 20,-3.57143 20,-3.57143"
         style="color:#000000;fill:none;stroke:#685638;stroke-width:5.39941216;stroke-linecap:butt;stroke-linejoin:miter;stroke-miterlimit:4;stroke-opacity:1;stroke-dasharray:none;stroke-dashoffset:0;marker:none;visibility:visible;display:inline;overflow:visible;enable-background:accumulate" />
      <path
         style="color:#000000;fill:none;stroke:#685638;stroke-width:5.39941216;stroke-linecap:butt;stroke-linejoin:miter;stroke-miterlimit:4;stroke-opacity:1;stroke-dasharray:none;stroke-dashoffset:0;marker:none;visibility:visible;display:inline;overflow:visible;enable-background:accumulate"
         d="m -642.84427,571.0484 c -4.28571,-7.85714 -0.67148,-8.6631 -8.92857,-11.07142 -8.57143,-2.5 -20,-3.57143 -20,-3.57143"
         id="path4274"
         sodipodi:nodetypes="csc" />
      <path
         id="path4276"
         d="m -689.64286,610.35714 c 12.85714,19.28572 10.71429,20.35715 12.85714,19.28572 2.14286,-1.07143 2.14286,-1.07143 2.14286,-1.07143 l 8.92857,-17.85714"
         style="fill:none;stroke:#2c4766;stroke-width:5.39941216;stroke-linecap:butt;stroke-linejoin:miter;stroke-miterlimit:4;stroke-opacity:1;stroke-dasharray:none" />
    </g>
  </g>
  <g
     inkscape:groupmode="layer"
     id="layer2"
     inkscape:label="Féminin">
    <g
       id="g5564"
       transform="translate(-598,-698.36218)">
      <path
         transform="translate(0,732.36218)"
         id="path5493"
         d="m 650,204.28571 c 7.14286,-25 7.14286,-24.28571 7.14286,-24.28571 l 101.42857,10 0.71429,17.85714 L 650,204.28571 z"
         style="color:#000000;fill:#e9c597;fill-opacity:1;fill-rule:nonzero;stroke:#684e20;stroke-width:6;stroke-linecap:butt;stroke-linejoin:miter;stroke-miterlimit:4;stroke-opacity:1;stroke-dasharray:none;stroke-dashoffset:0;marker:none;visibility:visible;display:inline;overflow:visible;enable-background:accumulate" />
      <path
         id="path4907"
         d="m 708.8464,931.50071 c -1.93704,3.74016 -7.53282,12.46724 2.15223,11.6361 9.68499,-0.83116 66.50393,1.5584 63.92117,-0.83116 -2.58263,-2.38956 -12.69807,-9.35044 -19.58524,-9.45431 -6.8871,-0.1039 -45.41205,0.10387 -46.48816,-1.35063 z"
         style="fill:#826122;fill-opacity:1;stroke:#51330f;stroke-width:6;stroke-linecap:butt;stroke-linejoin:miter;stroke-miterlimit:4;stroke-opacity:1;stroke-dasharray:none" />
      <path
         id="path4909"
         d="m 650.95146,934.8478 c -4.30447,0.78646 -26.90293,1.68528 -23.88971,4.26928 3.01299,2.58404 12.91329,7.19039 22.16785,6.29157 9.25468,-0.89877 49.71655,-2.69636 49.71655,-2.69636 0,0 -0.64573,-10.33617 -4.08928,-10.44849 -3.44354,-0.11236 -41.96853,2.47169 -43.90541,2.584 z"
         style="fill:#826122;fill-opacity:1;stroke:#51330f;stroke-width:6;stroke-linecap:butt;stroke-linejoin:miter;stroke-miterlimit:4;stroke-opacity:1;stroke-dasharray:none" />
      <path
         sodipodi:nodetypes="cccccccccccccccccccccc"
         id="path4893"
         d="m 649.51841,853.0022 c -1.60831,11.26447 -19.19373,20.16996 -24.99168,13.57609 -3.59568,-3.49107 -17.76012,-11.03628 -13.66531,-16.27819 8.68192,-5.80956 12.24222,-26.61299 14.084,-35.61403 0.88716,-11.23717 -0.59374,-22.65429 0.83395,-33.7978 3.66789,-10.03071 13.46728,-15.46812 21.96323,-20.83504 9.73517,-7.21488 20.80229,-12.26504 31.33675,-18.10455 5.502,-3.41102 10.73107,-7.38508 16.79842,-9.77291 10.18602,4.70521 22.32551,1.98971 32.15664,7.8082 15.66574,6.7001 32.64384,13.83713 42.79911,28.22934 7.20531,9.96167 3.10027,22.75392 4.08314,34.06356 0.53613,10.11434 -2.32929,21.30821 1.43971,30.66786 4.07053,6.62108 11.24592,11.147 13.7022,18.7553 -6.90943,5.88905 -17.28415,9.97634 -24.88605,3.57442 -10.78453,-3.88464 -15.70168,-17.93252 -28.07009,-18.28829 -8.0483,-1.15418 -7.23492,-13.05868 -10.31468,-19.33763 -1.43215,-7.58398 -1.52416,-16.19698 -8.13472,-21.46373 -4.25034,-6.48953 -12.50966,-8.34643 -19.52616,-5.34757 -10.38739,2.97628 -16.76592,12.56812 -23.93875,19.93926 -7.99724,7.37184 -11.08427,17.92304 -16.76231,26.87177 -2.91478,4.46682 5.9154,14.33756 11.21439,13.8829 -2.29351,0.43186 -18.84647,-0.60251 -20.12179,1.47104 z"
         style="fill:#f6e35f;fill-opacity:1;stroke:#66590a;stroke-width:6;stroke-linecap:butt;stroke-linejoin:miter;stroke-miterlimit:4;stroke-opacity:1;stroke-dasharray:none" />
      <path
         style="color:#000000;fill:#e9c597;fill-opacity:1;fill-rule:nonzero;stroke:#905e3f;stroke-width:6;stroke-linecap:butt;stroke-linejoin:miter;stroke-miterlimit:4;stroke-opacity:1;stroke-dasharray:none;stroke-dashoffset:0;marker:none;visibility:visible;display:inline;overflow:visible;enable-background:accumulate"
         d="m 641.92613,805.64832 c 0,17.39897 -3.25517,28.62411 9.65379,29.18536 10.71272,0.46576 2.75066,-5.83729 2.75066,-5.83729 0,0 7.04328,17.9035 11.16834,22.39355 3.2443,3.53136 10.77849,5.61312 10.77849,5.61312 0,0 27.38758,18.74565 29.07135,20.99068 1.68377,2.24502 1.68377,2.80628 1.68377,2.80628 l 21.60757,-18.57765 c 0,0 14.70504,-10.49481 20.87887,-13.86235 6.17382,-3.36753 3.53664,-14.14433 3.53664,-14.14433 0,0 4.33384,-1.30975 11.33749,-0.67306 6.17383,0.56125 6.06147,-21.21596 6.06147,-21.21596 l -4.49006,-7.29634 -19.64399,-8.98011 -9.16388,2.82611 -13.13292,-2.52005 -20.35873,-13.83296 c 0,0 -0.45577,6.47989 -16.2261,13.27169 -12.67922,5.46056 -12.51093,8.33615 -12.51093,8.33615 l -33.00183,1.51716 z"
         id="path4915"
         sodipodi:nodetypes="cscscsccscsccccccscc" />
      <path
         sodipodi:nodetypes="csccsc"
         id="path4917"
         d="m 678.35308,838.94641 c 8.39374,7.21334 10.53219,9.87615 27.3196,8.5815 16.78734,-1.29472 20.34335,-2.95938 25.07829,-8.69302 l -2.69548,2.04216 c 0,0 -16.27162,12.30292 -23.01839,12.69979 -6.74677,0.39687 -26.68402,-14.63043 -26.68402,-14.63043 z"
         style="fill:#130f0a;fill-opacity:1;stroke:#b22222;stroke-width:6;stroke-linecap:butt;stroke-linejoin:miter;stroke-miterlimit:4;stroke-opacity:1;stroke-dasharray:none" />
      <path
         id="path4925"
         d="m 762.8536,895.15733 c -3.10825,10.64275 -0.59835,28.84962 7.5802,24.22565 8.1784,-4.62391 7.88911,-25.18546 7.88911,-25.18546 0,0 -10.07297,-17.51742 -15.46931,0.95981 z"
         style="fill:#e9c597;fill-opacity:1;stroke:#684e20;stroke-width:6;stroke-linecap:butt;stroke-linejoin:miter;stroke-miterlimit:4;stroke-opacity:1;stroke-dasharray:none"
         sodipodi:nodetypes="cscs" />
      <path
         transform="matrix(0.32922737,0,0,0.30622909,273.4678,445.24526)"
         d="m 1264.2857,1211.6479 c 0,16.9631 -13.1116,30.7143 -29.2857,30.7143 -16.1741,0 -29.2857,-13.7512 -29.2857,-30.7143 0,-16.963 13.1116,-30.7142 29.2857,-30.7142 16.1741,0 29.2857,13.7512 29.2857,30.7142 z"
         sodipodi:ry="30.714285"
         sodipodi:rx="29.285715"
         sodipodi:cy="1211.6479"
         sodipodi:cx="1235"
         id="path4927"
         style="color:#000000;fill:#ffffff;fill-opacity:1;fill-rule:nonzero;stroke:#ffffff;stroke-width:18.89644623;stroke-linecap:butt;stroke-linejoin:miter;stroke-miterlimit:4;stroke-opacity:1;stroke-dasharray:none;stroke-dashoffset:0;marker:none;visibility:visible;display:inline;overflow:visible;enable-background:accumulate"
         sodipodi:type="arc" />
      <path
         transform="matrix(0.4399049,0,0,0.3587793,137.55023,383.4781)"
         d="m 1257.1428,1214.505 c 0,12.2292 -6.0761,22.1429 -13.5714,22.1429 -7.4953,0 -13.5714,-9.9137 -13.5714,-22.1429 0,-12.2292 6.0761,-22.1429 13.5714,-22.1429 7.4953,0 13.5714,9.9137 13.5714,22.1429 z"
         sodipodi:ry="22.142857"
         sodipodi:rx="13.571428"
         sodipodi:cy="1214.505"
         sodipodi:cx="1243.5714"
         id="path4929"
         style="color:#000000;fill:#5db133;fill-opacity:1;fill-rule:nonzero;stroke:#5db133;stroke-width:15.10282516;stroke-linecap:butt;stroke-linejoin:miter;stroke-miterlimit:4;stroke-opacity:1;stroke-dasharray:none;stroke-dashoffset:0;marker:none;visibility:visible;display:inline;overflow:visible;enable-background:accumulate"
         sodipodi:type="arc" />
      <path
         transform="matrix(0.32477665,0,0,0.35874421,327.26199,380.70271)"
         sodipodi:type="arc"
         style="color:#000000;fill:#ffffff;fill-opacity:1;fill-rule:nonzero;stroke:#ffffff;stroke-width:17.57787895;stroke-linecap:butt;stroke-linejoin:miter;stroke-miterlimit:4;stroke-opacity:1;stroke-dasharray:none;stroke-dashoffset:0;marker:none;visibility:visible;display:inline;overflow:visible;enable-background:accumulate"
         id="path4931"
         sodipodi:cx="1235"
         sodipodi:cy="1211.6479"
         sodipodi:rx="29.285715"
         sodipodi:ry="30.714285"
         d="m 1264.2857,1211.6479 c 0,16.9631 -13.1116,30.7143 -29.2857,30.7143 -16.1741,0 -29.2857,-13.7512 -29.2857,-30.7143 0,-16.963 13.1116,-30.7142 29.2857,-30.7142 16.1741,0 29.2857,13.7512 29.2857,30.7142 z" />
      <path
         transform="matrix(0.41797269,0,0,0.39910627,203.74632,333.60783)"
         sodipodi:type="arc"
         style="color:#000000;fill:#5db133;fill-opacity:1;fill-rule:nonzero;stroke:#5db133;stroke-width:14.69038105;stroke-linecap:butt;stroke-linejoin:miter;stroke-miterlimit:4;stroke-opacity:1;stroke-dasharray:none;stroke-dashoffset:0;marker:none;visibility:visible;display:inline;overflow:visible;enable-background:accumulate"
         id="path4933"
         sodipodi:cx="1243.5714"
         sodipodi:cy="1214.505"
         sodipodi:rx="13.571428"
         sodipodi:ry="22.142857"
         d="m 1257.1428,1214.505 c 0,12.2292 -6.0761,22.1429 -13.5714,22.1429 -7.4953,0 -13.5714,-9.9137 -13.5714,-22.1429 0,-12.2292 6.0761,-22.1429 13.5714,-22.1429 7.4953,0 13.5714,9.9137 13.5714,22.1429 z" />
      <path
         transform="matrix(0.28742567,0,0,0.31696756,347.38596,433.93323)"
         d="m 1318.5714,1220.9336 c 0,5.5228 -5.7564,10 -12.8572,10 -7.1008,0 -12.8571,-4.4772 -12.8571,-10 0,-5.5229 5.7563,-10 12.8571,-10 7.1008,0 12.8572,4.4771 12.8572,10 z"
         sodipodi:ry="10"
         sodipodi:rx="12.857142"
         sodipodi:cy="1220.9336"
         sodipodi:cx="1305.7142"
         id="path4937"
         style="color:#000000;fill:#000000;fill-opacity:1;fill-rule:nonzero;stroke:#000000;stroke-width:19.87838745;stroke-linecap:butt;stroke-linejoin:miter;stroke-miterlimit:4;stroke-opacity:1;stroke-dasharray:none;stroke-dashoffset:0;marker:none;visibility:visible;display:inline;overflow:visible;enable-background:accumulate"
         sodipodi:type="arc" />
      <path
         transform="matrix(0.29381856,0,0,0.26438811,302.47007,498.84224)"
         sodipodi:type="arc"
         style="color:#000000;fill:#000000;fill-opacity:1;fill-rule:nonzero;stroke:#000000;stroke-width:21.52735519;stroke-linecap:butt;stroke-linejoin:miter;stroke-miterlimit:4;stroke-opacity:1;stroke-dasharray:none;stroke-dashoffset:0;marker:none;visibility:visible;display:inline;overflow:visible;enable-background:accumulate"
         id="path4939"
         sodipodi:cx="1305.7142"
         sodipodi:cy="1220.9336"
         sodipodi:rx="12.857142"
         sodipodi:ry="10"
         d="m 1318.5714,1220.9336 c 0,5.5228 -5.7564,10 -12.8572,10 -7.1008,0 -12.8571,-4.4772 -12.8571,-10 0,-5.5229 5.7563,-10 12.8571,-10 7.1008,0 12.8572,4.4771 12.8572,10 z" />
      <path
         transform="matrix(0.70936555,0,0,0.37409372,-203.07564,368.03722)"
         d="m 1298.5108,1240.2506 c 0,8.3757 -9.2533,15.1655 -20.6678,15.1655 -11.4145,0 -20.6678,-6.7898 -20.6678,-15.1655 0,-8.3757 9.2533,-15.1655 20.6678,-15.1655 11.4145,0 20.6678,6.7898 20.6678,15.1655 z"
         sodipodi:ry="15.165505"
         sodipodi:rx="20.667803"
         sodipodi:cy="1240.2506"
         sodipodi:cx="1277.843"
         id="path4941"
         style="color:#000000;fill:#ca6343;fill-opacity:1;fill-rule:nonzero;stroke:none;stroke-width:17.39470291;marker:none;visibility:visible;display:inline;overflow:visible;enable-background:accumulate"
         sodipodi:type="arc" />
      <path
         sodipodi:nodetypes="cscccccccscssscccccccsccccsccccssccccccsccscccccccccccccccccccccc"
         id="path4943"
         d="m 710.08065,739.58346 c -33.87625,55.08251 -33.80456,7.60936 -48.99551,20.60084 -9.70541,8.30019 -5.85157,26.51998 -5.85157,26.51998 0,0 -18.18762,-0.0417 -18.4911,3.29593 l -2.50828,21.84117 c 0,0 -12.52636,7.15908 -6.15456,7.15908 l 2.43527,0 -1.01015,31.4374 26.50415,-0.48044 c 0,0 -13.05576,2.74016 -21.55157,12.14621 -8.18534,9.06235 -14.94729,24.58713 -15.43157,28.96695 0.47016,0.25585 1.61351,2.29874 4.20524,9.55558 6.06832,16.99154 4.5466,20.62777 6.06366,17.2901 1.51705,-3.33765 0.6104,2.44208 1.52061,-3.32287 0.91032,-5.76502 0.91999,-5.46296 0.91999,-5.46296 0,0 -8.49893,-13.04383 0.30036,-11.52679 l 8.80452,1.50185 0,16.08864 c 0,0 -1.22536,2.43138 3.02244,3.34162 l 4.24279,0.90111 14.26768,-3.34162 c 0,-8.19237 -1.50943,-29.12471 -6.36415,-33.97942 -4.85475,-4.85471 -0.91777,-11.51873 -4.86231,-4.84347 l -3.94232,6.66444 -6.06377,11.84589 -10.32523,-0.61948 c 0,0 -0.89755,-9.7102 0.61962,-14.86834 1.51705,-5.15815 22.13352,-23.05345 22.13352,-23.05345 0,0 13.65404,16.07944 24.2737,16.98969 l 10.62556,0.91984 31.2573,-14.2676 c 0,0 -21.24188,0.90273 -33.37868,-4.86222 -12.13679,-5.76501 -42.77741,-26.39656 -41.56373,-31.85808 1.21369,-5.46158 13.90585,-19.05104 13.90585,-19.05104 l 57.71326,-13.31487 52.15742,17.99986 1.1762,18.0444 -20.21082,12.95917 17.7718,12.37102 c 0,0 19.53512,-77.1316 7.09478,-78.95214 -1.94371,-0.28452 -61.71179,-34.62071 -64.3104,-34.63598 z m -91.05489,151.48712 c -0.63074,-0.34313 -0.0378,2.53658 -0.0378,0.45056 0,-0.133 0.0189,-0.28445 0.0378,-0.45056 z m 136.80002,-19.56157 0.30033,16.98968 5.46303,6.36414 4.56192,3.9423 -1.22027,16.98974 c 0,0 7.59037,-6.37212 6.98356,-13.04733 l -0.61951,-6.66449 -15.46906,-24.57404 z m -112.54505,55.75623 c -3.16901,-0.0132 -4.88108,3.39797 -4.88108,3.39797 0,0 0.0111,0.62002 -11.5267,2.44051 -11.52992,1.82055 9.10499,9.7057 9.10499,9.7057 l 10.92597,3.0225 c 10.92307,3.03422 20.63168,-2.42176 20.63168,-2.42176 l -15.78827,-9.10496 c -3.45137,-5.42361 -6.29846,-7.03077 -8.46659,-7.03996 z m 64.91751,5.219 0.60076,10.92592 37.02067,-0.60074 -23.07216,-6.06371 -14.54927,-4.26147 z"
         style="fill:#775622;fill-opacity:0.28985506;stroke:none" />
      <path
         style="color:#000000;fill:none;stroke:#685638;stroke-width:6;stroke-linecap:butt;stroke-linejoin:miter;stroke-miterlimit:4;stroke-opacity:1;stroke-dasharray:none;stroke-dashoffset:0;marker:none;visibility:visible;display:inline;overflow:visible;enable-background:accumulate"
         d="m 665.65908,821.85528 c 4.76242,-8.73111 0.74617,-12.1521 9.92172,-14.8283 9.52484,-2.77808 10.10281,-0.93823 10.10281,-0.93823"
         id="path4945"
         sodipodi:nodetypes="csc" />
      <path
         sodipodi:nodetypes="csc"
         id="path4947"
         d="m 744.01678,823.78578 c -4.76242,-8.7311 0.76906,-15.18255 -8.40648,-17.85875 -9.52485,-2.77808 -15.65865,-0.93823 -15.65865,-0.93823"
         style="color:#000000;fill:none;stroke:#685638;stroke-width:6;stroke-linecap:butt;stroke-linejoin:miter;stroke-miterlimit:4;stroke-opacity:1;stroke-dasharray:none;stroke-dashoffset:0;marker:none;visibility:visible;display:inline;overflow:visible;enable-background:accumulate" />
      <path
         id="path5485"
         d="m 675.28698,804.41034 c 0,0 14.14213,1.51523 16.66751,-3.53553"
         style="fill:none;stroke:#000000;stroke-width:6;stroke-linecap:butt;stroke-linejoin:miter;stroke-miterlimit:4;stroke-opacity:1;stroke-dasharray:none" />
      <path
         style="fill:none;stroke:#000000;stroke-width:6;stroke-linecap:butt;stroke-linejoin:miter;stroke-miterlimit:4;stroke-opacity:1;stroke-dasharray:none"
         d="m 731.95449,804.41034 c 0,0 -14.14213,1.51523 -16.66751,-3.53553"
         id="path5487" />
      <path
         sodipodi:nodetypes="ccccccccccccccccccccccc"
         id="path4897"
         d="m 661.88118,850.00947 c -8.13074,6.64375 -27.22997,12.07457 -34.12761,20.45683 -5.93418,6.88792 -5.84269,16.50554 -6.95943,24.99287 1.31686,7.72824 10.79088,5.30251 16.30388,5.90475 6.99988,-1.86008 8.14224,-10.34837 13.4207,-14.66663 1.89829,-1.53492 3.46976,-9.5835 1.55928,-3.47758 -3.55574,7.08763 -10.85493,12.77929 -10.42758,21.42657 -0.30746,8.16411 2.47257,14.44966 2.582,22.57936 -2.32173,7.01869 19.51972,-0.90548 19.02358,-5.68065 5.43706,-7.10536 1.96309,9.29156 9.74359,9.23811 17.9024,-4.05805 28.60853,-13.75407 39.38185,1.05617 11.84534,-11.07909 23.6704,-10.22027 33.31954,0.49489 6.8775,1.77104 23.31435,5.27004 16.41631,-12.28567 0.55381,-7.98018 -3.42507,-14.01687 -1.14869,-21.72231 0.95955,-4.33636 -4.93137,-15.64957 -8.78192,-27.56336 10.17304,36.05696 17.40725,19.18195 24.4196,20.1527 6.83553,0.94412 1.50903,4.32842 1.31493,-7.94949 -2.16813,-8.63758 0.40779,-11.99311 -7.86586,-18.55695 -5.98731,-6.73319 -27.59333,-15.74022 -33.13481,-7.11835 -6.64478,9.02987 -16.90881,13.98481 -27.05512,17.99204 -6.4948,5.46899 -14.47174,1.62302 -18.69083,-4.76356 -6.63311,-6.46066 -11.04575,-8.86089 -18.38036,-14.36094 -3.64494,-2.85678 -6.19977,-10.46917 -10.91305,-6.1488 z"
         style="fill:#d23824;fill-opacity:1;stroke:#862013;stroke-width:6;stroke-linecap:butt;stroke-linejoin:miter;stroke-miterlimit:4;stroke-opacity:1;stroke-dasharray:none" />
      <path
         id="path4901"
         d="m 718.14415,898.02655 c -12.44466,-3.33633 -14.51418,15.36728 -5.09809,20.32591 10.51442,6.91893 24.49444,3.78716 36.10131,1.9949 9.4914,-2.49191 16.41578,-20.14905 5.61137,-24.60863 -9.78971,-0.49227 -19.4075,1.69671 -29.37848,0.56501 2.27022,0.25122 -4.92379,2.00598 -7.23611,1.72281 z"
         style="color:#000000;fill:#64360e;fill-opacity:1;fill-rule:nonzero;stroke:#64360e;stroke-width:6;stroke-linecap:butt;stroke-linejoin:miter;stroke-miterlimit:4;stroke-opacity:1;stroke-dasharray:none;stroke-dashoffset:0;marker:none;visibility:visible;display:inline;overflow:visible;enable-background:accumulate" />
      <path
         id="path4923"
         d="m 628.47423,899.85806 c 2.79786,15.35146 6.89075,19.07476 12.91697,17.78005 6.02621,-1.29472 1.97666,-21.87886 1.97666,-21.87886 0,0 0.30454,-6.22133 -14.89363,4.09881 z"
         style="fill:#e9c597;fill-opacity:1;stroke:#684e20;stroke-width:6;stroke-linecap:butt;stroke-linejoin:miter;stroke-miterlimit:4;stroke-opacity:1;stroke-dasharray:none"
         sodipodi:nodetypes="cscc" />
      <path
         sodipodi:nodetypes="ccccc"
         id="path4899"
         d="m 707.41696,901.2861 c 3.28543,6.23548 11.36469,5.53264 17.28786,6.93552 7.40717,1.01328 15.25348,1.66033 22.57735,-0.28545 4.5961,-3.60837 11.0883,-8.67618 13.27879,-13.35842 -0.70121,-0.25148 -1.45283,0.0865 -2.13737,-0.25219"
         style="color:#000000;fill:none;stroke:#43351a;stroke-width:6;stroke-linecap:butt;stroke-linejoin:miter;stroke-miterlimit:4;stroke-opacity:1;stroke-dasharray:none;stroke-dashoffset:0;marker:none;visibility:visible;display:inline;overflow:visible;enable-background:accumulate" />
      <path
         transform="translate(-1.0101525,729.33172)"
         d="m 747.0078,181.6091 c 0,1.95262 -2.48743,3.53553 -5.55583,3.53553 -3.06841,0 -5.55584,-1.58291 -5.55584,-3.53553 0,-1.95262 2.48743,-3.53553 5.55584,-3.53553 3.0684,0 5.55583,1.58291 5.55583,3.53553 z"
         sodipodi:ry="3.5355341"
         sodipodi:rx="5.5558391"
         sodipodi:cy="181.6091"
         sodipodi:cx="741.45197"
         id="path5544"
         style="color:#000000;fill:#f3ce20;fill-opacity:1;stroke:#f3ce20;stroke-width:6;stroke-linecap:butt;stroke-linejoin:miter;stroke-miterlimit:4;stroke-opacity:1;stroke-dasharray:none;stroke-dashoffset:0;marker:none;visibility:visible;display:inline;overflow:visible;enable-background:accumulate"
         sodipodi:type="arc" />
      <path
         transform="translate(0,732.36218)"
         id="path5546"
         d="m 655.589,125.54563 c 21.21321,33.84012 49.49748,47.98225 49.49748,47.98225"
         style="color:#000000;fill:none;stroke:#64360e;stroke-width:6;stroke-linecap:butt;stroke-linejoin:miter;stroke-miterlimit:4;stroke-opacity:1;stroke-dasharray:none;stroke-dashoffset:0;marker:none;visibility:visible;display:inline;overflow:visible;enable-background:accumulate" />
    </g>
  </g>
</svg>
