<?xml version="1.0" encoding="UTF-8" standalone="no"?>
<!-- Created with Inkscape (http://www.inkscape.org/) -->

<svg
   xmlns:dc="http://purl.org/dc/elements/1.1/"
   xmlns:cc="http://creativecommons.org/ns#"
   xmlns:rdf="http://www.w3.org/1999/02/22-rdf-syntax-ns#"
   xmlns:svg="http://www.w3.org/2000/svg"
   xmlns="http://www.w3.org/2000/svg"
   xmlns:xlink="http://www.w3.org/1999/xlink"
   xmlns:sodipodi="http://sodipodi.sourceforge.net/DTD/sodipodi-0.dtd"
   xmlns:inkscape="http://www.inkscape.org/namespaces/inkscape"
   width="2380.1428"
   height="2271.5713"
   id="svg2"
   version="1.1"
   inkscape:version="0.48.0 r9654"
   sodipodi:docname="horloge.svg">
  <defs
     id="defs4">
    <linearGradient
       id="linearGradient3785"
       inkscape:collect="always">
      <stop
         id="stop3787"
         offset="0"
         style="stop-color:#f5d35b;stop-opacity:1" />
      <stop
         id="stop3789"
         offset="1"
         style="stop-color:#faebb8;stop-opacity:1" />
    </linearGradient>
    <linearGradient
       id="linearGradient3003">
      <stop
         style="stop-color:#302e27;stop-opacity:1;"
         offset="0"
         id="stop3005" />
      <stop
         id="stop3824"
         offset="0.5"
         style="stop-color:#a8a494;stop-opacity:1;" />
      <stop
         style="stop-color:#6f6a5a;stop-opacity:1"
         offset="1"
         id="stop3007" />
    </linearGradient>
    <linearGradient
       inkscape:collect="always"
       xlink:href="#linearGradient3003"
       id="linearGradient3009"
       x1="1937.1428"
       y1="1183.7908"
       x2="3280"
       y2="-547.63782"
       gradientUnits="userSpaceOnUse"
       gradientTransform="translate(872.7718,48.487322)" />
    <linearGradient
       inkscape:collect="always"
       xlink:href="#linearGradient3785"
       id="linearGradient3783"
       x1="-28.571514"
       y1="1206.6479"
       x2="-377.14288"
       y2="1252.3622"
       gradientUnits="userSpaceOnUse" />
    <linearGradient
       inkscape:collect="always"
       xlink:href="#linearGradient3003"
       id="linearGradient3009-0"
       x1="1937.1428"
       y1="1183.7908"
       x2="3280"
       y2="-547.63782"
       gradientUnits="userSpaceOnUse" />
    <linearGradient
       inkscape:collect="always"
       id="linearGradient3003-3">
      <stop
         style="stop-color:#302e27;stop-opacity:1;"
         offset="0"
         id="stop3005-4" />
      <stop
         style="stop-color:#6f6a5a;stop-opacity:1"
         offset="1"
         id="stop3007-6" />
    </linearGradient>
    <linearGradient
       gradientTransform="translate(-1524.2188,754.84375)"
       y2="-547.63782"
       x2="3280"
       y1="1183.7908"
       x1="1937.1428"
       gradientUnits="userSpaceOnUse"
       id="linearGradient3806"
       xlink:href="#linearGradient3003-3"
       inkscape:collect="always" />
    <linearGradient
       inkscape:collect="always"
       xlink:href="#linearGradient3003"
       id="linearGradient3830"
       gradientUnits="userSpaceOnUse"
       x1="1271.4236"
       y1="2127.0085"
       x2="4375.6631"
       y2="-1546.3391"
       gradientTransform="matrix(0.41201412,0,0,0.41196361,2307.1181,16.922353)" />
    <linearGradient
       inkscape:collect="always"
       xlink:href="#linearGradient3785"
       id="linearGradient5016"
       x1="2405.5938"
       y1="391.9375"
       x2="4672.3125"
       y2="391.9375"
       gradientUnits="userSpaceOnUse"
       gradientTransform="matrix(-1,0,0,-1,7077.9063,783.87497)" />
  </defs>
  <sodipodi:namedview
     id="base"
     pagecolor="#ffffff"
     bordercolor="#666666"
     borderopacity="1.0"
     inkscape:pageopacity="0.0"
     inkscape:pageshadow="2"
     inkscape:zoom="0.12374369"
     inkscape:cx="807.56603"
     inkscape:cy="1530.6476"
     inkscape:document-units="px"
     inkscape:current-layer="layer1"
     showgrid="false"
     inkscape:window-width="1278"
     inkscape:window-height="747"
     inkscape:window-x="0"
     inkscape:window-y="25"
     inkscape:window-maximized="1"
     fit-margin-top="0"
     fit-margin-left="0"
     fit-margin-right="0"
     fit-margin-bottom="0" />
  <metadata
     id="metadata7">
    <rdf:RDF>
      <cc:Work
         rdf:about="">
        <dc:format>image/svg+xml</dc:format>
        <dc:type
           rdf:resource="http://purl.org/dc/dcmitype/StillImage" />
        <dc:title></dc:title>
      </cc:Work>
    </rdf:RDF>
  </metadata>
  <g
     inkscape:label="Calque 1"
     inkscape:groupmode="layer"
     id="layer1"
     transform="translate(-2345.5575,746.36473)">
    <path
       sodipodi:type="arc"
       style="color:#000000;fill:url(#linearGradient3783);fill-opacity:1;fill-rule:nonzero;stroke:#90052a;stroke-width:3;stroke-linecap:butt;stroke-linejoin:miter;stroke-miterlimit:4;stroke-opacity:1;stroke-dasharray:none;stroke-dashoffset:0;marker:none;visibility:visible;display:inline;overflow:visible;enable-background:accumulate"
       id="path2996"
       sodipodi:cx="491.42856"
       sodipodi:cy="540.93359"
       sodipodi:rx="1188.5714"
       sodipodi:ry="1134.2856"
       d="m 1680,540.93359 c 0,626.44871 -532.1416,1134.28561 -1188.57144,1134.28561 -656.42987,0 -1188.57141,-507.8369 -1188.57141,-1134.28561 0,-626.44866 532.14154,-1134.28564 1188.57141,-1134.28564 C 1147.8584,-593.35205 1680,-85.51507 1680,540.93359 z"
       transform="translate(3044.2004,-151.51268)"
       inkscape:export-filename="/home/quentin/Bureau/horloge.png"
       inkscape:export-xdpi="29.992571"
       inkscape:export-ydpi="29.992571" />
    <path
       style="color:#000000;fill:url(#linearGradient3009);fill-opacity:1;fill-rule:nonzero;stroke:#040001;stroke-width:5;stroke-linecap:butt;stroke-linejoin:miter;stroke-miterlimit:4;stroke-opacity:1;stroke-dasharray:none;stroke-dashoffset:0;marker:none;visibility:visible;display:inline;overflow:visible;enable-background:accumulate"
       d="m 3535.6156,-704.85643 c -628.0267,0 -1137.125,489.92398 -1137.125,1094.28125 0,604.35727 509.0983,1094.28128 1137.125,1094.28128 628.0266,0 1137.1562,-489.92401 1137.1562,-1094.28128 0,-604.35727 -509.1296,-1094.28125 -1137.1562,-1094.28125 z m 0,142.84375 c 558.5965,0 1011.4374,425.97803 1011.4374,951.4375 0,525.45947 -452.8409,951.43748 -1011.4374,951.43748 -558.5966,0 -1011.4063,-425.97801 -1011.4063,-951.43748 0,-525.45947 452.8097,-951.4375 1011.4063,-951.4375 z"
       id="path3000"
       inkscape:connector-curvature="0"
       inkscape:export-filename="/home/quentin/Bureau/horloge.png"
       inkscape:export-xdpi="29.992571"
       inkscape:export-ydpi="29.992571" />
    <path
       style="color:#000000;fill:#8a3618;fill-opacity:1;fill-rule:nonzero;stroke:#000000;stroke-width:5;stroke-linecap:butt;stroke-linejoin:miter;stroke-miterlimit:4;stroke-opacity:1;stroke-dasharray:none;stroke-dashoffset:0;marker:none;visibility:visible;display:inline;overflow:visible;enable-background:accumulate"
       d="m 3535.6156,-522.01268 c -536.5052,0 -971.4063,408.06943 -971.4063,911.4375 0,503.36811 434.9011,911.43748 971.4063,911.43748 536.5051,0 971.4374,-408.06937 971.4374,-911.43748 0,-503.36807 -434.9323,-911.4375 -971.4374,-911.4375 z m 5.5624,11 42.75,41.65625 -41.3124,39.09375 -42.75,-41.65625 41.3124,-39.09375 z m 243.625,30.625 30.0626,50.875 -50.4376,27.5 -30.0624,-50.90625 50.4374,-27.46875 z m -487.1874,0.34375 52.5312,29.625 -29.375,48.03125 -52.5312,-29.625 29.375,-48.03125 z m 714.25,89.78125 15.3437,56.65625 -56.125,14 -15.3437,-56.625 56.125,-14.03125 z m -941.1876,0.71875 58.7188,15.5625 -15.4062,53.6875 -58.7188,-15.5625 15.4062,-53.6875 z m 1078.25,142.40625 58,0.4375 -0.4687,58.5 -57.9687,-0.40625 0.4374,-58.53125 z m -1273.0624,1.40625 60.9374,0.4375 -0.4374,55.6875 -60.9376,-0.4375 0.4376,-55.6875 z m 1424.875,171.343752 55.9062,14.8125 -16.2188,56.4062501 -55.875,-14.8125001 16.1876,-56.40625 z m -1515.3438,1.28125 14.5938,53.90625 -58.9376,14.7500001 -14.5937,-53.9375001 58.9375,-14.71875 z m 1615.4375,203.312498 50,28.1875 -30.8437,50.46875 -50,-28.21875 30.8437,-50.4375 z m -1715.25,0.65625 28.625,48.4375 -53,28.90625 -28.625,-48.46875 53,-28.875 z m -41.4687,221.84375 40.6874,39.6875 -43.375,41.0625 -40.7187,-39.6875 43.4063,-41.0625 z m 1798.2812,0 40.7188,39.6875 -43.4063,41.0625 -40.6875,-39.6875 43.375,-41.0625 z m -1778.5625,224.5625 50,28.21875 -30.8437,50.46875 -50.0313,-28.21875 30.875,-50.46875 z m 1758.75,0.6875 28.625,48.4375 -52.9687,28.875 -28.625,-48.4375 52.9687,-28.875 z m -1679.2187,211.34375 55.9062,14.84375 -16.1875,56.40625 -55.9063,-14.8125 16.1876,-56.4375 z m 1599.4062,1.3125 14.5938,53.90625 -58.9688,14.71875 -14.5938,-53.90625 58.9688,-14.71875 z m -1465.4062,183.71875 57.9687,0.4375 -0.4375,58.50003 -58,-0.4063 0.4688,-58.53123 z m 1270.0937,1.40625 60.9063,0.4375 -0.4376,55.68748 -60.9062,-0.4062 0.4375,-55.71878 z m -1034.7187,129.99998 15.3124,56.625 -56.125,14.0312 -15.3124,-56.625 56.125,-14.0312 z m 857.0937,0.6875 58.7187,15.5937 -15.4374,53.6876 -58.7188,-15.5626 15.4375,-53.7187 z m -650.4687,81.75 30.0624,50.875 -50.4062,27.5 -30.0938,-50.9063 50.4376,-27.4687 z m 443.6874,0.3437 52.5313,29.625 -29.375,48.0313 -52.5313,-29.625 29.375,-48.0313 z m -221.875,27.875 42.75,41.6876 -41.3124,39.0937 -42.75,-41.6875 41.3124,-39.0938 z"
       id="path3779"
       inkscape:connector-curvature="0"
       inkscape:export-filename="/home/quentin/Bureau/horloge.png"
       inkscape:export-xdpi="29.992571"
       inkscape:export-ydpi="29.992571" />
    <path
       sodipodi:type="arc"
       style="color:#000000;fill:url(#linearGradient3009-0);fill-opacity:1;fill-rule:nonzero;stroke:#000000;stroke-width:5;stroke-linecap:butt;stroke-linejoin:miter;stroke-miterlimit:4;stroke-opacity:1;stroke-dasharray:none;stroke-dashoffset:0;marker:none;visibility:visible;display:inline;overflow:visible;enable-background:accumulate"
       id="path3781"
       sodipodi:cx="491.42856"
       sodipodi:cy="540.93359"
       sodipodi:rx="697.14282"
       sodipodi:ry="677.14282"
       d="m 1188.5714,540.93359 c 0,373.97566 -312.12149,677.14281 -697.14284,677.14281 -385.02135,0 -697.14282,-303.16715 -697.14282,-677.14281 0,-373.97565 312.12147,-677.14282 697.14282,-677.14282 385.02135,0 697.14284,303.16717 697.14284,677.14282 z"
       transform="translate(3044.2004,-151.51268)"
       inkscape:export-filename="/home/quentin/Bureau/horloge.png"
       inkscape:export-xdpi="29.992571"
       inkscape:export-ydpi="29.992571" />
    <path
       style="color:#000000;fill:#8a3618;fill-opacity:1;fill-rule:nonzero;stroke:#000000;stroke-width:5;stroke-linecap:butt;stroke-linejoin:miter;stroke-miterlimit:4;stroke-opacity:1;stroke-dasharray:none;stroke-dashoffset:0;marker:none;visibility:visible;display:inline;overflow:visible;enable-background:accumulate"
       d="m 3778.4582,-79.7232 -25.0116,16.58253 -25.8979,-15.25319 -23.1406,19.11325 -27.3455,-12.46646 -21.0235,21.4273 -28.4975,-9.53196 -18.67,23.49514 -29.3346,-6.49909 -16.1099,25.326744 -29.8564,-3.4071 -13.3821,26.8727204 -30.0436,-0.256 -10.4969,28.1134496 -29.9056,2.88522 -7.4938,29.05877 -29.4526,5.9969 -4.4115,29.688976 -28.6649,9.03963 -1.2801,29.9844 -27.5621,11.98394 1.8513,29.95487 -26.1539,14.8002 4.9728,29.59052 -24.4602,17.45888 8.0451,28.91108 -22.5104,19.92069 11.0188,27.91654 -20.2949,22.15593 13.8746,26.60689 -17.8724,24.16475 16.5825,25.01163 -15.2532,25.89789 19.1033,23.14067 -12.4565,27.34539 21.4174,21.02355 -9.5222,28.4975 23.4952,18.6701 -6.4991,29.3345 25.3169,16.10986 -3.3972,29.85639 26.8727,13.37236 -0.256,30.05334 28.1135,10.48716 2.8851,29.91548 29.0589,7.49365 5.9969,29.44282 29.6791,4.42139 9.0396,28.655 29.9844,1.2899 11.9939,27.5622 29.9548,-1.8513 14.8002,26.144 29.5905,-4.9728 17.4589,24.47 28.9111,-8.045 19.9206,22.51041 27.9068,-11.01891 22.1657,20.29491 26.6069,-13.8746 24.1648,17.8725 25.0116,-16.5825 25.8979,15.2531 23.1406,-19.11311 27.3455,12.45661 21.0234,-21.41751 28.4976,9.532 18.6701,-23.4952 29.3345,6.4991 16.1098,-25.3268 29.8564,3.3973 13.3724,-26.8629 30.0534,0.256 10.4871,-28.1134 29.9155,-2.8852 7.4937,-29.0588 29.4428,-5.99688 4.4213,-29.68901 28.655,-9.03964 1.29,-29.9844 27.5522,-11.98392 -1.8512,-29.95487 26.1539,-14.80019 -4.9729,-29.59053 24.4602,-17.4589 -8.0352,-28.91108 22.5006,-19.92068 -11.0188,-27.91652 20.3046,-22.15596 -13.8746,-26.60687 17.8726,-24.16477 -16.5826,-25.01163 15.2433,-25.89787 -19.1033,-23.14067 12.4566,-27.34538 -21.4175,-21.02357 9.5321,-28.49749 -23.4952,-18.67011 6.4991,-29.33448 -25.3268,-16.10985 3.3973,-29.85641 -26.8629,-13.37238 0.256,-30.05335 -28.1135,-10.48714 -2.8852,-29.915476 -29.0587,-7.49366 -5.9969,-29.45265 -29.689,-4.4115 -9.0397,-28.65505 -29.9844,-1.28999 -11.9839,-27.5620096 -29.9549,1.85125 -14.8002,-26.1538944 -29.6003,4.98264 -17.4491,-24.47002 -28.9111,8.04505 -19.9207,-22.51044 -27.9165,11.01889 -22.156,-20.29487 -26.6166,13.87456 -24.155,-17.87248 z m -12.7421,43.42569 c 246.6238,0 446.556,197.50959 446.556,441.14997 0,243.6404 -199.9322,441.15004 -446.556,441.15004 -246.6237,0 -446.5462,-197.50964 -446.5462,-441.15004 0,-243.64038 199.9225,-441.14997 446.5462,-441.14997 z"
       id="path5035"
       inkscape:connector-curvature="0"
       inkscape:export-filename="/home/quentin/Bureau/horloge.png"
       inkscape:export-xdpi="29.992571"
       inkscape:export-ydpi="29.992571" />
    <path
       style="fill:url(#linearGradient5016);fill-opacity:1;stroke:#000000;stroke-width:5;stroke-linecap:butt;stroke-linejoin:miter;stroke-miterlimit:4;stroke-opacity:1;stroke-dasharray:none"
       d="m 3563.6563,1477.625 10.375,-16.375 -9.3125,-6.625 c 0,0 10.1876,-15.7471 9.8125,-18.625 -0.375,-2.8779 2.875,17.4688 2.875,17.4688 l -1.9375,7.5937 21.3125,11.4375 7.3438,-15.375 c 0,0 -3.8364,-4.7309 -8.7188,-6.4062 -4.8824,-1.6751 -8.2188,-31.6875 -8.2188,-31.6875 l 9.8126,-0.75 c 0,0 3.2225,-13.3486 0.5937,-15.625 -2.6287,-2.2767 -5.9375,1.4062 -5.9375,1.4062 0,0 15.3698,-38.7201 13,-45.7187 -2.3698,-6.9986 -14.6269,-7.0784 -18.3125,-6.2813 -3.6857,0.7975 -1.5937,14.5625 -1.5937,14.5625 0,0 4.2959,-2.6134 10,-1.3437 5.7044,1.27 2.1562,9.6562 2.1562,9.6562 l -12.5312,22.5 c 0,0 -4.9079,-17.4785 -4.0626,-19.9375 0.8457,-2.459 2.9376,-6.5625 2.9376,-6.5625 l -22.0938,-13.0937 -8.75,13.5 c 0,0 7.715,5.4111 10.3438,7.6875 2.6287,2.2767 6.7812,29.8125 6.7812,29.8125 l -5.9375,1.4062 -5.875,15.1563 11.2187,1.0937 -19.0624,41.5625 13.7812,9.5625 z m -28.6562,-2.5937 10.4062,-19.0938 -5.2812,-11.5937 -1.2188,-70.25 c -9.7201,-6.3015 -15.5,-12.6875 -15.5,-12.6875 l -9.9062,13.9062 3.9687,6.9375 5,66.125 -9.7187,10.7813 2.0624,-3.8125 -5.2812,-11.5938 -1.2188,-70.25 c -9.7199,-6.3015 -15.5,-12.7187 -15.5,-12.7187 l -9.9062,13.9375 3.9688,6.9375 5,66.125 -9.7813,10.8437 22.3437,15.8125 8.25,-15.2187 22.3126,15.8125 z m 266.8124,-36.6875 6.0313,-20.9063 -7.6563,-10.1875 -16.2812,-68.3125 c -10.8486,-4.0614 -17.9062,-9.0625 -17.9062,-9.0625 l -6.6563,15.7188 5.3437,5.9062 19.125,63.5 -7.2187,12.7188 25.2187,10.625 z m -560.0312,-0.7188 15.25,-15.5312 -1.9062,-12.5938 18.0937,-67.875 c -7.6191,-8.7256 -11.4375,-16.4687 -11.4375,-16.4687 l -13.3125,10.6562 1.875,7.75 -13.3125,64.9688 -12.375,7.75 17.125,21.3437 z m 592.5312,-2.9375 6.6563,-18.2187 -10.5313,-4.4688 c 0,0 6.5482,-17.5515 5.5626,-20.2812 -0.986,-2.7297 6.5624,16.4375 6.5624,16.4375 l -0.25,7.8125 23.2813,6.5937 3.8437,-16.5625 c 0,0 -4.7464,-3.8212 -9.875,-4.4062 -5.1284,-0.5849 -14.8437,-29.1875 -14.8437,-29.1875 l 9.4063,-2.8438 c 0,0 0.2759,-13.7178 -2.7813,-15.375 -3.0572,-1.6574 -5.5,2.6563 -5.5,2.6563 0,0 6.6645,-41.1131 2.8437,-47.4375 -3.8206,-6.3244 -15.7911,-3.7593 -19.2187,-2.1875 -3.4276,1.5721 1.5625,14.5625 1.5625,14.5625 0,0 3.6563,-3.512 9.5,-3.5 5.8441,0.012 4.1562,9 4.1562,9 l -7.375,24.6562 c 0,0 -8.5461,-16.0104 -8.25,-18.5937 0.2965,-2.5834 1.4688,-7.0313 1.4688,-7.0313 l -24.4062,-8.0312 -5.625,15.0625 c 0,0 8.6618,3.624 11.7187,5.2812 3.0573,1.6574 13.0625,27.6563 13.0625,27.6563 l -5.5,2.625 -2.5,16.0937 11.2188,-1.3437 -9.6876,44.6875 15.5,6.3437 z m -812.3124,-81.2812 16.5937,-14.0625 -0.75,-12.7188 24.2187,-65.9375 c -6.7916,-9.384 -9.875,-17.4687 -9.875,-17.4687 l -14.25,9.4062 1.1876,7.9063 -19.2188,63.4687 -13.0312,6.5938 15.125,22.8125 z m 1047.125,-2.5625 3.0937,-19.125 -11.1563,-2.4375 c 0,0 3.1365,-18.4724 1.6563,-20.9688 -0.032,-0.055 -0.011,-0.058 -0.031,-0.094 1.1149,1.663 9.5626,15 9.5626,15 l 1.2187,7.75 24.0937,2.0937 0.6876,-17 c 0,0 -5.4151,-2.8558 -10.5626,-2.4687 -5.147,0.3873 -20.0312,-25.875 -20.0312,-25.875 l 8.7188,-4.5625 c 0,0 -2.3114,-13.508 -5.625,-14.5625 -3.3138,-1.0546 -4.9063,3.625 -4.9063,3.625 0,0 -1.1546,-41.6293 -6.0937,-47.125 -4.9392,-5.4956 -16.2404,-0.7492 -19.3126,1.4375 -3.072,2.187 4.2813,14.0312 4.2813,14.0312 0,0 2.9452,-4.1349 8.6875,-5.2187 5.7428,-1.0839 5.75,8.0312 5.75,8.0312 l -2.5938,25.625 c 0,0 -11.4314,-14.1256 -11.625,-16.7187 -0.1931,-2.5931 0.125,-7.1875 0.125,-7.1875 l -25.4687,-3.3125 -2.7187,15.8437 c 0,0 9.2177,1.9455 12.5312,3 3.3138,1.0546 18,24.7188 18,24.7188 l -4.9062,3.625 0.5937,16.25 10.7187,-3.4063 -1.0937,45.7188 16.4063,3.3125 z m -1080.0626,-10.5 16.5938,-14.0625 -0.75,-12.7188 24.2188,-65.9375 c -6.7918,-9.384 -9.875,-17.4687 -9.875,-17.4687 l -14.25,9.4062 1.1874,7.9063 -19.2187,63.4687 -13.0313,6.5938 15.125,22.8125 z m 1292.1563,-132.625 -0.5937,-19.375 -11.4376,-0.25 c 0,0 -0.4171,-18.7671 -2.3437,-20.9375 1.511,1.5305 12.1875,12.8437 12.1875,12.8437 l 2.6562,7.375 24.0626,-2.5 -2.5626,-16.8437 c 0,0 -5.8319,-1.7623 -10.8124,-0.4063 -4.9804,1.3561 -24.5938,-21.5937 -24.5938,-21.5937 l 7.7188,-6.1563 c 0,0 -4.8277,-12.8429 -8.2813,-13.25 -3.4536,-0.4072 -4.125,4.5 -4.125,4.5 0,0 -9.046,-40.6654 -14.9375,-45.125 -5.8914,-4.4595 -16.0858,2.3643 -18.6875,5.0938 -2.6016,2.7298 6.875,12.9687 6.875,12.9687 0,0 2.0985,-4.6283 7.5313,-6.7812 5.4326,-2.1529 7.1874,6.8125 7.1874,6.8125 l 2.2813,25.6562 c 0,0 -13.8809,-11.7406 -14.5625,-14.25 -0.6815,-2.5094 -1.25,-7.0625 -1.25,-7.0625 l -25.6562,1.5938 0.375,16.0625 c 0,0 9.3903,0.1553 12.8437,0.5625 3.4536,0.4071 22.375,20.8437 22.375,20.8437 l -4.125,4.5 3.625,15.8438 9.9063,-5.375 7.5937,45.0937 16.75,0.1563 z m -1486.625,-4 19.7813,-9 2.75,-12.4375 41.25,-56.8438 c -3.9787,-10.8792 -4.75,-19.5 -4.75,-19.5 l -16.2813,5.1875 -1,7.9063 -35.75,55.8437 -14.3437,2.7813 8.3437,26.0625 z m -28.1563,-21.5313 19.7813,-9 2.75,-12.4375 41.25,-56.8437 c -3.9787,-10.8792 -4.75,-19.5 -4.75,-19.5 l -16.25,5.1562 -1,7.9375 -35.7813,55.8438 -14.3437,2.7812 8.3437,26.0625 z m -30.5312,-16.9687 19.7812,-9 2.75,-12.4375 41.25,-56.8438 c -3.9786,-10.8792 -4.75,-19.5 -4.75,-19.5 l -16.25,5.1875 -1.0312,7.9063 -35.75,55.8437 -14.3438,2.7813 8.3438,26.0625 z m 1599.0312,-2.1875 -1.125,-21.7188 -10.5937,-7.125 -37.75,-59.2187 c -11.5804,-0.2862 -19.875,-2.7188 -19.875,-2.7188 l -1.1563,17.0313 7,3.8437 38.8438,53.75 -2.6562,14.3438 27.3124,1.8125 z m 100.7813,-150.625 26.5,-6.8438 -7.4687,-19.25003 25.6562,-6.5937 -6.4375,-16.6563 26,-6.7187 -7.8437,-20.2813 -12.2813,-3.4375 -54.375,-44.4687 c -11.0908,3.34431 -19.7187,3.5937 -19.7187,3.5937 l 4.2187,16.5625 7.8437,1.4688 53.6876,38.9062 1.6874,12.3438 -0.625,-1.5938 -12.2812,-3.4687 -54.3438,-44.4688 c -11.0904,3.3444 -19.75,3.625 -19.75,3.625 l 4.2188,16.5313 7.875,1.4687 53.6562,38.9375 1.7813,13.0313 -11.625,-3.2813 -54.375,-44.4375 c -11.0907,3.3444 -19.7187,3.5938 -19.7187,3.5938 l 4.2187,16.5625 7.8437,1.4687 53.6876,38.9063 1.9687,14.50003 z m -1820.75,-5.8125 21.5937,-2.5 6.4376,-11.03133 56.6874,-41.4687 c -0.4529,-11.5751 1.4376,-20 1.4376,-20 l -17.0626,-0.062 -3.375,7.2187 -51.1562,42.2188 -14.5312,-1.75 -0.031,27.37503 z m -20.1875,-29.12503 21.5938,-2.5313 6.4374,-11 56.6876,-41.4687 c -0.4531,-11.5751 1.4374,-20 1.4374,-20 l -17.0624,-0.062 -3.375,7.2187 -51.1563,42.2188 -14.5313,-1.75 -0.031,27.375 z m -23.875,-25.5 21.5938,-2.5313 6.4374,-11 56.6876,-41.4687 c -0.453,-11.5751 1.4687,-20 1.4687,-20 l -17.0937,-0.062 -3.375,7.2187 -51.1563,42.1875 -14.4375,-1.7187 2.25,-0.25 6.4375,-11 56.6875,-41.4688 c -0.4529,-11.5751 1.4375,-20 1.4375,-20 l -17.0625,-0.062 -3.4062,7.21881 -51.1563,42.1875 -14.5,-1.71881 -0.031,27.34381 19.2813,-2.21881 -0.062,27.34381 z m 1926.6875,-12.1563 20.7813,-5.0312 c 0,0 4.3097,-18.3956 1.9374,-20.1563 -2.3723,-1.7607 -10.3618,2.0396 -13.0937,-1.2812 -2.732,-3.3208 -64.0625,-47.5313 -64.0625,-47.5313 0,0 4.8118,-7.6546 12.4062,-7.4062 7.5946,0.2486 60.0313,41.5312 60.0313,41.5312 l 2.5313,5.3438 25.6562,-2.5313 -0.4688,-21.9062 c 0,0 -12.6395,4.8387 -15.5624,3.5312 -2.9233,-1.3074 -54.0519,-35.3572 -54.125,-39.9375 -0.073,-4.5803 -6.4635,-6.7395 -9.9376,-7.5937 -3.4739,-0.8542 -35.0624,5.6562 -35.0624,5.6562 0,0 1.1161,41.7861 2.9374,44 1.8215,2.2139 4.5798,-0.068 9.875,3 5.2954,3.0681 44.4091,34.927 46.7813,36.6875 2.3724,1.7607 9.375,13.625 9.375,13.625 z m 78.8437,-179.8437 23.4063,-14.1563 -10.9687,-14.0937 22.9687,-13.9063 -13.3437,-17.1562 -12.75,0.2187 -64.875,-26.9375 c -9.6596,6.3941 -17.8438,9.125 -17.8438,9.125 l 8.7812,14.625 7.9688,-0.8437 62.5938,21.8437 5.1562,11.2813 -1.0312,-1.3125 -12.75,0.2187 -64.875,-26.9375 c -9.6596,6.3941 -17.8438,9.125 -17.8438,9.125 l 8.7812,14.625 7.9688,-0.8437 62.5938,21.8437 6.0624,13.2813 z m -2113.25,-56.5625 c 0,0 4.3207,-12.8545 7.1876,-14.2813 2.8667,-1.4267 61.6352,-19.2597 65.2187,-16.4062 3.5836,2.8535 9.2895,-0.7037 12.1563,-2.8438 2.8667,-2.1401 17.9374,-30.6875 17.9374,-30.6875 0,0 -32.9769,-25.6875 -35.8437,-25.6875 -2.8668,0 -2.8601,3.5786 -8.5937,5.7188 -5.7336,2.1401 -55.1958,12.1303 -58.0626,12.8437 -2.8667,0.7135 -16.4687,-1.4375 -16.4687,-1.4375 l -9.3125,19.2813 c 0,0 11.4457,14.9633 14.3125,14.25 2.8668,-0.7134 5.0123,-9.25 9.3125,-9.25 4.3002,0 77.4062,-19.2813 77.4062,-19.2813 0,0 2.8918,8.5743 -2.125,14.2813 -5.0169,5.707 -70.25,19.9687 -70.25,19.9687 l -5.75,-1.4375 -14.3124,21.4063 17.1874,13.5625 z m 2141.625,-0.75 18.4688,-10.8125 c 0,0 -1.1903,-18.8401 -3.9688,-19.8438 -2.7786,-1.0036 -9.3343,4.9256 -12.9062,2.5313 -3.572,-2.3943 -75,-27.0938 -75,-27.0938 0,0 2.3739,-8.7089 9.7188,-10.6562 7.3449,-1.9472 69.4687,22.5 69.4687,22.5 l 3.9687,4.375 23.8126,-9.7813 -6.75,-20.8437 c 0,0 -10.6994,8.2861 -13.875,7.875 -3.1758,-0.41109 -61.9246,-18.322 -63.3126,-22.6875 -1.3878,-4.3656 -8.1458,-4.5877 -11.7187,-4.4063 -3.5729,0.1816 -31.9687,15.5 -31.9687,15.5 0,0 13.0874,39.6851 15.4687,41.2813 2.3813,1.5962 4.3582,-1.3834 10.3125,0.031 5.9542,1.4148 52.5965,20.6527 55.375,21.6563 2.7786,1.0036 12.9062,10.375 12.9062,10.375 z m 47.9688,-251.0938 16.2812,-21.9687 -18.8437,-10.8125 -11.7187,5 -70.25,-0.3438 c -6.5177,9.5765 -13.0313,15.2188 -13.0313,15.2188 l 13.6875,10.2187 7,-3.8125 66.2188,-3.5312 10.6562,10.0312 z m -2230.1562,-11.3125 c 0,0 6.7802,-11.74 9.875,-12.5625 3.0947,-0.8225 64.2496,-6.4832 67.1874,-2.9687 2.9382,3.51451 9.2934,1.1463 12.5313,-0.375 3.2379,-1.5214 23.6875,-26.4375 23.6875,-26.4375 0,0 -27.129,-31.7685 -29.9375,-32.3438 -2.8085,-0.5752 -3.5161,2.8976 -9.5625,3.8438 -6.0464,0.9461 -56.5172,0.8138 -59.4688,0.9375 -2.9516,0.1237 -15.8437,-4.6875 -15.8437,-4.6875 l -13,17 c 0,0 8.2359,16.9673 11.1875,16.8437 2.9517,-0.1236 6.756,-8.0816 10.9688,-7.2187 4.2127,0.8629 79.6874,-3.3438 79.6874,-3.3438 0,0 1.0912,8.9783 -4.9687,13.5625 -6.0601,4.5843 -72.8125,5.4688 -72.8125,5.4688 l -5.3125,-2.5625 -18.3437,18.0937 14.125,16.75 z m 2149.8124,-21.875 c 2.415,0.087 3.4253,-3.0504 9.0938,-3.9375 6.0464,-0.946 56.4859,-0.7825 59.4375,-0.9062 2.9517,-0.1237 15.875,4.6875 15.875,4.6875 l 12.9687,-17 c 0,0 -8.2046,-16.96729 -11.1562,-16.8438 -2.9517,0.1237 -6.7873,8.0817 -11,7.2188 -4.2127,-0.8629 -79.6875,3.3437 -79.6875,3.3437 0,0 -1.091,-8.9782 4.9687,-13.5625 6.0602,-4.5842 72.8126,-5.4687 72.8126,-5.4687 l 5.3124,2.5625 18.3438,-18.0938 -14.125,-16.75 c 0,0 -6.7802,11.7401 -9.875,12.5625 -3.0948,0.8225 -64.2495,6.4833 -67.1875,2.9688 -2.9382,-3.5145 -9.2932,-1.1776 -12.5313,0.3437 -3.2379,1.5214 -23.6874,26.4688 -23.6874,26.4688 0,0 27.1289,31.7685 29.9374,32.3437 0.1757,0.036 0.3392,0.057 0.5,0.062 z m -2144.75,-53.2812 11.7188,-5.0313 70.25,0.375 c 6.5176,-9.5764 13.0625,-15.2187 13.0625,-15.2187 l -13.6875,-10.2188 -7.0312,3.8125 -66.2188,3.5 -10.625,-10 -16.3125,21.9688 18.8437,10.8125 z m 2120.375,-194.75 c 2.8669,0 2.8602,-3.5473 8.5938,-5.6875 5.7336,-2.1401 55.1957,-12.13029 58.0625,-12.8438 2.8668,-0.7134 16.4687,1.4063 16.4687,1.4063 l 9.3438,-19.25 c 0,0 -11.4769,-14.9633 -14.3438,-14.25 -2.8667,0.7134 -5.0123,9.25 -9.3124,9.25 -4.3003,0 -77.4063,19.2812 -77.4063,19.2812 0,0 -2.8605,-8.5742 2.1563,-14.2812 5.0169,-5.707 70.2187,-19.9688 70.2187,-19.9688 l 5.75,1.4375 14.3125,-21.406195 -17.1875,-13.5625 c 0,0 -4.2894,12.8545 -7.1563,14.2812 -2.8667,1.4268 -61.6352,19.259795 -65.2187,16.406295 -3.5836,-2.8535 -9.3207,0.7036 -12.1875,2.8437 -2.8668,2.1402 -17.9375,30.6875 -17.9375,30.6875 0,0 32.977,25.6563 35.8437,25.6563 z m -2014.3437,-0.2188 c 0.5292,0 1.0221,-0.04 1.4687,-0.062 3.573,-0.1815 31.9688,-15.5 31.9688,-15.5 0,0 -13.0874,-39.685 -15.4688,-41.2812 -2.3813,-1.5962 -4.3581,1.3522 -10.3124,-0.062 -5.9543,-1.4147 -52.5966,-20.652705 -55.375,-21.656305 -2.7786,-1.0036 -12.9063,-10.3437 -12.9063,-10.3437 l -18.4687,10.8125 c 0,0 1.1902,18.808795 3.9687,19.812505 2.7786,1.0036 9.3344,-4.8943 12.9063,-2.5 3.572,2.39429 75.0312,27.09369 75.0312,27.09369 0,0 -2.4052,8.709 -9.75,10.65631 -7.345,1.9472 -69.4688,-22.53131 -69.4688,-22.53131 l -3.9687,-4.375 -23.8125,9.8125 6.75,20.84381 c 0,0 10.7306,-8.2861 13.9062,-7.875 3.1758,0.41109 61.8934,18.322 63.2813,22.6875 1.2144,3.81989 6.5457,4.48669 10.25,4.46869 z m 23.3125,-60.1875 c 9.6594,-6.394 17.8438,-9.125 17.8438,-9.125 l -8.7813,-14.656195 -7.9375,0.875 -62.625,-21.8438 -5.125,-11.3125 1.0312,1.3438 12.7188,-0.2188 64.875,26.9375 c 9.6594,-6.394 17.8438,-9.125 17.8438,-9.125 l -8.7813,-14.6562 -7.9375,0.875 -62.625,-21.8438 -6.0312,-13.2812 -23.4376,14.1562 11,14.0938 -23,13.9062 13.375,17.1563 12.7188,-0.2188 64.875,26.937495 z m 58.1562,-162.843695 c 6.334,-0.011 34.0938,-5.7188 34.0938,-5.7188 0,0 -1.0849,-41.786005 -2.9062,-44.000005 -1.8213,-2.2138 -4.5797,0.068 -9.875,-3 -5.2954,-3.068 -44.4403,-34.9269 -46.8126,-36.6875 -2.3724,-1.7606 -9.375,-13.625 -9.375,-13.625 l -20.7812,5.0313 c 0,0 -4.2783,18.36431 -1.9062,20.125 2.3724,1.7607 10.3306,-2.0083 13.0624,1.3125 2.732,3.3208 64.0626,47.531205 64.0626,47.531205 0,0 -4.7805,7.6547 -12.375,7.4063 -7.5947,-0.2486 -60.0626,-41.531305 -60.0626,-41.531305 l -2.5312,-5.3437 -25.6562,2.5312 0.4687,21.875005 c 0,0 12.6394,-4.838705 15.5625,-3.531205 2.9233,1.307505 54.0519,35.388505 54.125,39.968705 0.073,4.5804 6.4635,6.7396 9.9375,7.5938 0.2171,0.053 0.5466,0.063 0.9687,0.062 z m 1841.9376,-15.0313 3.4062,-7.2187 51.1562,-42.187505 14.5,1.7187 0.031,-27.375 -19.25,2.25 0.031,-27.3437 -21.5938,2.5 -6.4375,11.0312 -56.6875,41.4688 c 0.4529,11.5751 -1.4375,20.000005 -1.4375,20.000005 l 17.0625,0.062 3.375,-7.250005 51.1562,-42.1875 14.4376,1.75 -2.25,0.25 -6.4376,11 -56.6874,41.468705 c 0.4528,11.5752 -1.4376,20 -1.4376,20 l 17.0626,0.062 z M 2652.4375,-104.28123 c 11.0908,-3.3444 19.7188,-3.625 19.7188,-3.625 l -4.2188,-16.5313 -7.8437,-1.4687 -53.6875,-38.9063 -1.6875,-12.3437 0.625,1.5938 12.2813,3.4687 54.375,44.4375 c 11.0906,-3.3444 19.7187,-3.5938 19.7187,-3.5938 l -4.2187,-16.5625 -7.8438,-1.4375 -53.6875,-38.9374 -1.7813,-13.0313 11.625,3.25 54.375,44.4687 c 11.0907,-3.3443 19.75,-3.625 19.75,-3.625 l -4.2187,-16.5312 -7.875,-1.4687 -53.6875,-38.9063 -1.9375,-14.5 -26.5,6.8438 7.4375,19.25 -25.6562,6.5937 6.4374,16.6563 -26,6.7187 7.875,20.2812 12.25,3.4375 54.375,44.4688 z m 1761.5938,-14.25 3.375,-7.25 51.1875,-42.18749 14.5,1.75 0.031,-27.375 -21.5938,2.5 -6.4375,11.03129 -56.6875,41.4687 c 0.453,11.5751 -1.4375,20 -1.4375,20 l 17.0625,0.062 z m -20.1875,-29.125 3.375,-7.25 51.1875,-42.18749 14.5,1.75 0.031,-27.375 -21.5937,2.5 -6.4375,11.03129 -56.6875,41.4375 c 0.4529,11.575 -1.4375,20.0312 -1.4375,20.0312 l 17.0625,0.062 z m -110.875,-135.9062 16.2813,-5.1875 1,-7.90629 35.75,-55.84371 14.3437,-2.8125 -8.3437,-26.0625 -19.7813,9.03121 -2.75,12.4375 -41.25,56.84379 c 3.9787,10.87921 4.75,19.5 4.75,19.5 z m -1470.6563,-4.8125 1.1563,-17.03129 -7,-3.84371 -38.8437,-53.75 2.6562,-14.34379 -27.3125,-1.8125 1.125,21.71879 10.5937,7.125 37.75,59.21871 c 11.5804,0.2864 19.875,2.71879 19.875,2.71879 z m 1440.125,-12.15629 16.25,-5.1875 1.0313,-7.90621 35.75,-55.84379 14.3437,-2.78121 -8.3437,-26.0625 -19.7813,9 -2.75,12.4375 -41.25,56.84371 c 3.9789,10.8791 4.75,19.5 4.75,19.5 z m -1417.6562,-0.125 c 5.4716,-0.16341 11.705,-4.5152 13.6562,-6.5625 2.6016,-2.7297 -6.875,-12.96871 -6.875,-12.96871 0,0 -2.0672,4.62821 -7.5,6.78121 -5.4326,2.1528 -7.2187,-6.8125 -7.2187,-6.8125 l -2.2813,-25.65621 c 0,0 13.881,11.70921 14.5626,14.21871 0.6815,2.5094 1.25,7.09379 1.25,7.09379 l 25.6562,-1.59379 -0.375,-16.09371 c 0,0 -9.3903,-0.1241 -12.8438,-0.53129 -3.4535,-0.40711 -22.375,-20.84371 -22.375,-20.84371 l 4.125,-4.5 -3.625,-15.875 -9.9062,5.40621 -7.5625,-45.09371 -16.7813,-0.15629 0.5938,19.375 11.4375,0.25 c 0,0 0.4172,18.767 2.3437,20.9375 -1.5109,-1.5306 -12.1874,-12.875 -12.1874,-12.875 l -2.6563,-7.34371 -24.0625,2.5 2.5625,16.8125 c 0,0 5.832,1.7934 10.8125,0.4375 4.9804,-1.3561 24.5938,21.59371 24.5938,21.59371 l -7.6876,6.15629 c 0,0 4.7965,12.8116 8.25,13.21871 3.4536,0.40719 4.125,-4.46871 4.125,-4.46871 0,0 9.0461,40.63411 14.9376,45.09371 1.4728,1.1147 3.2073,1.5544 5.0312,1.5 z m 1389.5,-21.40621 16.2812,-5.1875 1,-7.90629 35.7813,-55.84371 14.3125,-2.8125 -8.3438,-26.0625 -19.7812,9.03121 -2.75,12.4375 -41.25,56.84379 c 3.9787,10.87921 4.75,19.5 4.75,19.5 z M 3025.1875,-438.65622 c 4.9068,-0.1137 10.3013,-2.5907 12.2813,-4 3.072,-2.187 -4.2813,-14.03121 -4.2813,-14.03121 0,0 -2.9139,4.13501 -8.6562,5.21871 -5.7428,1.084 -5.7812,-8.03121 -5.7812,-8.03121 l 2.625,-25.625 c 0,0 11.4002,14.12551 11.5937,16.71871 0.1933,2.5931 -0.125,7.1875 -0.125,7.1875 l 25.4687,3.3125 2.7188,-15.875 c 0,0 -9.2178,-1.9142 -12.5312,-2.96871 -3.314,-1.05469 -18,-24.71879 -18,-24.71879 l 4.9062,-3.625 -0.5625,-16.25 -10.75,3.40629 1.125,-45.71879 -16.4375,-3.3125 -3.0938,19.125 11.1876,2.4375 c 0,0 -3.1676,18.47239 -1.6876,20.96879 1.4802,2.4964 -9.5312,-14.9375 -9.5312,-14.9375 l -1.2188,-7.71879 -24.0937,-2.09371 -0.6563,17 c 0,0 5.384,2.85581 10.5313,2.46871 5.1472,-0.3872 20.0313,25.875 20.0313,25.875 l -8.7188,4.5625 c 0,0 2.3112,13.5081 5.625,14.5625 3.3138,1.05469 4.9062,-3.625 4.9062,-3.625 0,0 1.1547,41.6294 6.0938,47.125 1.5434,1.7173 3.7231,2.4567 6.0625,2.5625 0.3217,0.015 0.6416,0.01 0.9687,0 z m 1033.5,-7.65621 14.25,-9.40629 -1.1874,-7.875 19.1874,-63.46871 13.0313,-6.59379 -15.125,-22.8125 -16.5937,14.0625 0.75,12.71879 -24.1876,65.9375 c 6.7918,9.38411 9.875,17.4375 9.875,17.4375 z m -32.9687,-13.0625 14.25,-9.375 -1.1875,-7.90629 19.2188,-63.46871 13.0312,-6.59379 -15.125,-22.8125 -16.5938,14.0625 0.75,12.71879 -24.2187,65.9375 c 6.7918,9.384 9.875,17.4375 9.875,17.4375 z m -786.75,-62.09379 c 3.902,-0.046 7.7551,-1.089 9.4687,-1.875 3.4276,-1.572 -1.5624,-14.5625 -1.5624,-14.5625 0,0 -3.6565,3.5118 -9.5,3.5 -5.8442,-0.012 -4.1563,-9 -4.1563,-9 l 7.375,-24.65621 c 0,0 8.5463,16.01041 8.25,18.59371 -0.2964,2.5835 -1.4375,7.03129 -1.4375,7.03129 l 24.4062,8.03121 5.625,-15.0625 c 0,0 -8.6929,-3.624 -11.75,-5.28121 -3.0571,-1.6574 -13.0624,-27.65629 -13.0624,-27.65629 l 5.5,-2.65621 2.5,-16.0625 -11.1876,1.34371 9.6563,-44.6875 -15.5,-6.34371 -6.625,18.21871 10.5,4.46879 c 0,0 -6.5483,17.5515 -5.5625,20.28121 0.9858,2.7297 -6.5625,-16.4375 -6.5625,-16.4375 l 0.25,-7.8125 -23.2813,-6.59371 -3.8437,16.5625 c 0,0 4.7777,3.8213 9.9063,4.40621 5.1284,0.585 14.8124,29.1875 14.8124,29.1875 l -9.4062,2.84379 c 0,0 -0.2759,13.71771 2.7812,15.375 3.0573,1.6574 5.5,-2.65629 5.5,-2.65629 0,0 -6.6645,41.11309 -2.8437,47.4375 1.9104,3.1622 5.848,4.1083 9.75,4.0625 z m 577.1563,-19.8125 13.3437,-10.65621 -1.9063,-7.75 13.3126,-64.96879 12.4062,-7.75 -17.1562,-21.34371 -15.25,15.53121 1.9062,12.59379 -18.0938,67.875 c 7.6191,8.7257 11.4376,16.46871 11.4376,16.46871 z m -504.2188,-4.71871 6.6562,-15.71879 -5.3437,-5.90621 -19.125,-63.5 7.2187,-12.71879 -25.2187,-10.625 -6.0313,20.875 7.6563,10.1875 16.3125,68.34379 c 10.8486,4.06131 17.875,9.0625 17.875,9.0625 z m 175.5938,-21.84379 c 1.7039,0 3.1412,-0.1444 4.0624,-0.34371 3.6857,-0.79749 1.625,-14.59379 1.625,-14.59379 0,0 -4.3271,2.6447 -10.0312,1.375 -5.7045,-1.2701 -2.1562,-9.65621 -2.1562,-9.65621 l 12.5312,-22.5 c 0,0 4.9079,17.47851 4.0625,19.9375 -0.8456,2.4589 -2.9375,6.5625 -2.9375,6.5625 l 22.0938,13.0625 8.75,-13.5 c 0,0 -7.7152,-5.3801 -10.3438,-7.65629 -2.6288,-2.27671 -6.7812,-29.8125 -6.7812,-29.8125 l 5.9374,-1.40621 5.875,-15.15629 -11.2187,-1.09371 19.0937,-41.59379 -13.7812,-9.53121 -10.4062,16.375 9.3124,6.625 c 0,0 -10.1876,15.74701 -9.8124,18.625 0.375,2.87791 -2.875,-17.46879 -2.875,-17.46879 l 1.9374,-7.59371 -21.3124,-11.4375 -7.3126,15.375 c 0,0 3.8052,4.7309 8.6876,6.40621 4.8822,1.67519 8.2187,31.6875 8.2187,31.6875 l -9.8125,0.75 c 0,0 -3.2224,13.3485 -0.5938,15.625 2.6288,2.2766 5.9376,-1.40621 5.9376,-1.40621 0,0 -15.3698,38.7203 -13,45.71871 1.7772,5.249 9.1376,6.6106 14.25,6.625 z m 97.5937,-9.09371 9.9063,-13.90629 -3.9688,-6.9375 -5,-66.125 9.7812,-10.84371 -22.3124,-15.8125 -8.2813,15.21871 -22.3125,-15.8125 -10.4062,19.09379 5.2812,11.59371 1.2188,70.21879 c 9.7201,6.3015 15.5,12.71871 15.5,12.71871 l 9.9062,-13.90621 -3.9688,-6.9375 -4.9687,-66.125 9.7187,-10.8125 -2.0937,3.84371 5.2813,11.59379 1.2187,70.21871 c 9.72,6.30149 15.5,12.71879 15.5,12.71879 z"
       id="path3832"
       inkscape:connector-curvature="0"
       inkscape:export-filename="/home/quentin/Bureau/horloge.png"
       inkscape:export-xdpi="29.992571"
       inkscape:export-ydpi="29.992571" />
    <rect
       style="color:#000000;fill:#f5d35b;fill-opacity:1;fill-rule:nonzero;stroke:#000000;stroke-width:5;stroke-linecap:butt;stroke-linejoin:miter;stroke-miterlimit:4;stroke-opacity:1;stroke-dasharray:none;stroke-dashoffset:0;marker:none;visibility:visible;display:inline;overflow:visible;enable-background:accumulate"
       id="rect5020"
       width="16.162441"
       height="981.86829"
       x="3180.8418"
       y="-2605.9111"
       transform="matrix(0.82988436,0.55793543,-0.55793543,0.82988436,0,0)"
       inkscape:export-filename="/home/quentin/Bureau/horloge.png"
       inkscape:export-xdpi="29.992571"
       inkscape:export-ydpi="29.992571" />
    <rect
       style="color:#000000;fill:#382c03;fill-opacity:1;fill-rule:nonzero;stroke:#000000;stroke-width:5.07092476;stroke-linecap:butt;stroke-linejoin:miter;stroke-miterlimit:4;stroke-opacity:1;stroke-dasharray:none;stroke-dashoffset:0;marker:none;visibility:visible;display:inline;overflow:visible;enable-background:accumulate"
       id="rect5029"
       width="13.821102"
       height="302.71936"
       x="3029.9883"
       y="995.44208"
       transform="matrix(0.97235869,-0.23349215,0.45459523,0.89069814,0,0)"
       inkscape:export-filename="/home/quentin/Bureau/horloge.png"
       inkscape:export-xdpi="29.992571"
       inkscape:export-ydpi="29.992571" />
    <path
       inkscape:connector-curvature="0"
       id="path5044"
       d="m 3572.2341,85.991086 -18.3999,12.198979 -19.0518,-11.221047 -17.0235,14.060712 -20.1168,-9.170984 -15.466,15.763044 -20.9642,-7.01221 -13.7347,17.28426 -21.58,-4.78107 -11.8513,18.63168 -21.9639,-2.50644 -9.8446,19.76898 -22.1017,-0.18832 -7.722,20.68173 -22.0002,2.12251 -5.5128,21.37716 -21.6669,4.41164 -3.2453,21.84077 -21.0874,6.65002 -0.9417,22.0581 -20.2762,8.81602 1.362,22.03637 -19.2402,10.88781 3.6582,21.76834 -17.9942,12.84366 5.9184,21.26851 -16.5598,14.65471 8.106,20.53687 -14.93,16.29907 10.2069,19.57342 -13.1479,17.77686 12.199,18.39987 -11.2211,19.05184 14.0534,17.0235 -9.1636,20.1167 15.7557,15.46603 -7.005,20.96425 17.2843,13.73471 -4.7811,21.58 18.6244,11.85126 -2.4991,21.96392 19.769,9.83741 -0.1884,22.10882 20.6818,7.7149 2.1224,22.0074 21.3773,5.51272 4.4116,21.65969 21.8335,3.2526 6.65,21.08012 22.0581,0.94892 8.8234,20.2762 22.0363,-1.36191 10.8878,19.2329 21.7683,-3.65825 12.8437,18.00141 21.2685,-5.91832 14.6547,16.55984 20.5297,-8.10609 16.3062,14.93 19.5735,-10.20688 17.7768,13.14795 18.3999,-12.19896 19.0518,11.22098 17.0235,-14.06061 20.1168,9.16374 15.4659,-15.75585 20.9643,7.01224 13.7347,-17.2843 21.58,4.78108 11.8512,-18.63172 21.964,2.49923 9.8374,-19.76176 22.1089,0.18833 7.7148,-20.6817 22.0074,-2.1225 5.5128,-21.37718 21.6597,-4.41162 3.2525,-21.84079 21.0801,-6.65004 0.949,-22.0581 20.2689,-8.816 -1.3619,-22.03637 19.2402,-10.8878 -3.6583,-21.76834 17.9942,-12.84369 -5.9111,-21.26851 16.5526,-14.65469 -8.106,-20.53686 14.9371,-16.29909 -10.2069,-19.57341 13.1481,-17.77687 -12.1991,-18.39987 11.2138,-19.05183 -14.0534,-17.02349 9.1637,-20.1167 -15.7558,-15.46604 7.0123,-20.96425 -17.2843,-13.73471 4.7811,-21.57999 -18.6317,-11.85125 2.4992,-21.96394 -19.7618,-9.83743 0.1884,-22.10882 -20.6818,-7.71489 -2.1225,-22.0074 -21.3771,-5.51273 -4.4116,-21.66691 -21.8408,-3.24533 -6.6501,-21.08016 -22.0581,-0.94898 -8.816,-20.27607 -22.0364,1.36188 -10.8878,-19.24018 -21.7755,3.66549 -12.8365,-18.00143 -21.2685,5.91836 -14.6547,-16.559856 -20.5369,8.106076 -16.2991,-14.929974 -19.5806,10.206854 -17.7696,-13.147934 z m -9.3738,31.946214 c 181.4294,0 328.51,145.29843 328.51,324.53308 0,179.23467 -147.0806,324.53313 -328.51,324.53313 -181.4293,0 -328.5028,-145.29846 -328.5028,-324.53313 0,-179.23465 147.0735,-324.53308 328.5028,-324.53308 z"
       style="color:#000000;fill:#8a3618;fill-opacity:1;fill-rule:nonzero;stroke:#000000;stroke-width:5;stroke-linecap:butt;stroke-linejoin:miter;stroke-miterlimit:4;stroke-opacity:1;stroke-dasharray:none;stroke-dashoffset:0;marker:none;visibility:visible;display:inline;overflow:visible;enable-background:accumulate"
       inkscape:export-filename="/home/quentin/Bureau/horloge.png"
       inkscape:export-xdpi="29.992571"
       inkscape:export-ydpi="29.992571" />
    <path
       id="path3826"
       d="m 3404.2473,-293.42786 c -258.7558,0 -468.5115,201.830852 -468.5115,450.80405 0,248.97318 209.7557,450.80407 468.5115,450.80407 258.7559,0 468.5245,-201.83089 468.5245,-450.80407 0,-248.973198 -209.7686,-450.80405 -468.5245,-450.80405 z m 0,133.13214 c 173.0068,0 323.0745,146.711347 331.0123,311.95762 7.9031,164.52449 -152.4253,325.52865 -325.298,317.6719 -167.2174,-7.59973 -325.285,-152.63027 -325.285,-311.95761 0,-147.8987389 146.564,-317.67191 319.5707,-317.67191 z"
       style="color:#000000;fill:url(#linearGradient3830);fill-opacity:1;fill-rule:nonzero;stroke:#040001;stroke-width:5;stroke-linecap:butt;stroke-linejoin:miter;stroke-miterlimit:4;stroke-opacity:1;stroke-dasharray:none;stroke-dashoffset:0;marker:none;visibility:visible;display:inline;overflow:visible;enable-background:accumulate"
       inkscape:connector-curvature="0"
       sodipodi:nodetypes="ssssssssss"
       inkscape:export-filename="/home/quentin/Bureau/horloge.png"
       inkscape:export-xdpi="29.992571"
       inkscape:export-ydpi="29.992571" />
    <path
       sodipodi:type="star"
       style="color:#000000;fill:#f5d35b;fill-opacity:1;fill-rule:nonzero;stroke:#000000;stroke-width:3.50380015;stroke-linecap:butt;stroke-linejoin:miter;stroke-miterlimit:4;stroke-opacity:1;stroke-dasharray:none;stroke-dashoffset:0;marker:none;visibility:visible;display:inline;overflow:visible;enable-background:accumulate"
       id="path5018"
       sodipodi:sides="12"
       sodipodi:cx="634.37579"
       sodipodi:cy="-83.049278"
       sodipodi:r1="56.874371"
       sodipodi:r2="32.319523"
       sodipodi:arg1="0.98771983"
       sodipodi:arg2="1.262363"
       inkscape:flatsided="false"
       inkscape:rounded="0"
       inkscape:randomized="0"
       d="m 665.69052,-35.572106 -21.50361,-16.682797 -6.43035,25.979426 -10.28128,-25.199532 -18.55856,19.283666 3.69592,-26.964071 -25.71402,7.420864 16.6828,-21.503611 -25.97943,-6.430353 25.19953,-10.281275 -19.28366,-18.558561 26.96407,3.69592 -7.42086,-25.71402 21.50361,16.6828 6.43035,-25.97943 10.28127,25.19953 18.55857,-19.28366 -3.69592,26.96407 25.71402,-7.42087 -16.6828,21.503615 25.97942,6.430353 -25.19953,10.281275 19.28367,18.558562 -26.96407,-3.695921 z"
       inkscape:transform-center-x="0.3001585"
       inkscape:transform-center-y="-2.4719481"
       transform="matrix(1.427022,0,0,1.427022,2924.711,107.12523)"
       inkscape:export-filename="/home/quentin/Bureau/horloge.png"
       inkscape:export-xdpi="29.992571"
       inkscape:export-ydpi="29.992571" />
    <path
       sodipodi:type="arc"
       style="color:#000000;fill:#f7d86e;fill-opacity:1;fill-rule:nonzero;stroke:#000000;stroke-width:6.346241;stroke-linecap:butt;stroke-linejoin:miter;stroke-miterlimit:4;stroke-opacity:1;stroke-dasharray:none;stroke-dashoffset:0;marker:none;visibility:visible;display:inline;overflow:visible;enable-background:accumulate"
       id="path5022"
       sodipodi:cx="2088.9954"
       sodipodi:cy="1262.4739"
       sodipodi:rx="76.771591"
       sodipodi:ry="80.812202"
       d="m 2165.767,1262.4739 c 0,44.6313 -34.3719,80.8122 -76.7716,80.8122 -42.3998,0 -76.7716,-36.1809 -76.7716,-80.8122 0,-44.6314 34.3718,-80.8122 76.7716,-80.8122 42.3997,0 76.7716,36.1808 76.7716,80.8122 z"
       transform="matrix(0.78786796,0,0,0.78786796,1736.0138,-1187.7889)"
       inkscape:export-filename="/home/quentin/Bureau/horloge.png"
       inkscape:export-xdpi="29.992571"
       inkscape:export-ydpi="29.992571" />
    <path
       style="color:#000000;fill:#382c03;fill-opacity:1;fill-rule:nonzero;stroke:#000000;stroke-width:5;stroke-linecap:butt;stroke-linejoin:miter;stroke-miterlimit:4;stroke-opacity:1;stroke-dasharray:none;stroke-dashoffset:0;marker:none;visibility:visible;display:inline;overflow:visible;enable-background:accumulate"
       d="m 3379.4324,-256.72595 c -32.2813,1.33961 -58.0559,29.28694 -58.0559,63.59575 0,32.96582 23.8132,60.08896 54.3136,63.34947 22.5238,-11.79194 38.0146,-36.25831 38.0146,-64.53127 0,-26.68335 -13.7879,-49.96611 -34.2723,-62.41395 z"
       id="path5024"
       inkscape:connector-curvature="0"
       inkscape:export-filename="/home/quentin/Bureau/horloge.png"
       inkscape:export-xdpi="29.992571"
       inkscape:export-ydpi="29.992571" />
    <rect
       transform="matrix(0.9856325,0.16890404,0.06648346,0.99778753,0,0)"
       y="-723.21893"
       x="3478.3254"
       height="302.71936"
       width="13.821102"
       id="rect5031"
       style="color:#000000;fill:#382c03;fill-opacity:1;fill-rule:nonzero;stroke:#000000;stroke-width:5.07092476;stroke-linecap:butt;stroke-linejoin:miter;stroke-miterlimit:4;stroke-opacity:1;stroke-dasharray:none;stroke-dashoffset:0;marker:none;visibility:visible;display:inline;overflow:visible;enable-background:accumulate"
       inkscape:export-filename="/home/quentin/Bureau/horloge.png"
       inkscape:export-xdpi="29.992571"
       inkscape:export-ydpi="29.992571" />
    <rect
       style="color:#000000;fill:#382c03;fill-opacity:1;fill-rule:nonzero;stroke:#000000;stroke-width:5.02159166;stroke-linecap:butt;stroke-linejoin:miter;stroke-miterlimit:4;stroke-opacity:1;stroke-dasharray:none;stroke-dashoffset:0;marker:none;visibility:visible;display:inline;overflow:visible;enable-background:accumulate"
       id="rect5033"
       width="17.026926"
       height="417.60635"
       x="1590.0039"
       y="-3647.8594"
       transform="matrix(0.29945593,0.95411013,-0.90677703,0.4216105,0,0)"
       inkscape:export-filename="/home/quentin/Bureau/horloge.png"
       inkscape:export-xdpi="29.992571"
       inkscape:export-ydpi="29.992571" />
  </g>
</svg>
